<svg height="682pt" viewBox="-21 -92 682.66669 682" width="682pt" xmlns="http://www.w3.org/2000/svg"><path d="m75.671875 48.882812v323.746094c0 6.929688 5.617187 12.550782 12.546875 12.550782h463.558594c6.929687 0 12.550781-5.621094 12.550781-12.550782v-323.746094c0-6.933593-5.621094-12.546874-12.550781-12.546874h-463.558594c-6.929688 0-12.546875 5.613281-12.546875 12.546874zm25.09375 12.546876h438.46875v298.65625h-438.46875zm0 0"/><path d="m627.453125 398.546875h-22.066406v-365.320313c0-20.757812-16.886719-37.644531-37.636719-37.644531h-328.667969c-6.929687 0-12.542969 5.617188-12.542969 12.550781 0 6.929688 5.613282 12.542969 12.542969 12.542969h328.667969c6.914062 0 12.542969 5.628907 12.542969 12.550781v365.320313h-520.585938v-365.320313c0-6.921874 5.625-12.550781 12.542969-12.550781h64.542969c6.925781 0 12.546875-5.613281 12.546875-12.542969 0-6.933593-5.621094-12.550781-12.546875-12.550781h-64.542969c-20.75 0-37.636719 16.886719-37.636719 37.644531v365.320313h-22.066406c-6.925781 0-12.546875 5.621094-12.546875 12.550781v70.125c0 6.929688 5.621094 12.550782 12.546875 12.550782h614.90625c6.925781 0 12.546875-5.621094 12.546875-12.550782v-70.125c0-6.929687-5.621094-12.550781-12.546875-12.550781zm-12.546875 70.132813h-589.8125v-45.039063h589.8125zm0 0"/><path d="m386.359375 433.792969h-146.222656c-6.929688 0-12.550781 5.617187-12.550781 12.546875 0 6.929687 5.621093 12.542968 12.550781 12.542968h146.222656c6.925781 0 12.542969-5.613281 12.542969-12.542968 0-6.929688-5.617188-12.546875-12.542969-12.546875zm0 0"/><path d="m145.660156 214.4375h51.121094c1.816406 0 3.398438-1.007812 4.742188-3.019531 1.335937-2.007813 2.011718-4.304688 2.011718-6.890625 0-2.585938-.679687-4.832032-2.027344-6.746094-1.347656-1.914062-2.9375-2.875-4.769531-2.875h-37.867187v-1.304688c0-2.324218 1.550781-4.863281 4.652344-7.628906 3.101562-2.753906 6.84375-5.585937 11.222656-8.488281 4.375-2.902344 8.726562-6.101563 13.058594-9.585937 4.324218-3.480469 8.03125-7.789063 11.105468-12.921876 3.082032-5.125 4.621094-10.597656 4.621094-16.40625 0-8.910156-3.367188-15.984374-10.097656-21.238281-6.730469-5.25-14.566406-7.875-23.507813-7.875-8.675781 0-16.230469 2.511719-22.664062 7.539063-6.433594 5.027344-9.644531 11.703125-9.644531 20.03125 0 7.753906 3.304687 11.632812 9.917968 11.632812 3.496094 0 6.300782-.839844 8.433594-2.535156 2.121094-1.683594 3.1875-3.671875 3.1875-5.960938 0-3.871093 1.019531-6.703124 3.054688-8.492187 2.042968-1.792969 4.660156-2.683594 7.863281-2.683594 3.683593 0 6.449219 1.039063 8.289062 3.117188 1.847657 2.085937 2.765625 4.480469 2.765625 7.1875 0 3.390625-1.578125 6.875-4.730468 10.457031-3.152344 3.582031-7.007813 7.019531-11.570313 10.304688l-13.183594 9.875c-4.355469 3.277343-8.070312 6.988281-11.140625 11.128906-3.078125 4.140625-4.613281 8.28125-4.613281 12.425781v14.011719c0 1.929687 1.078125 3.566406 3.230469 4.914062 2.152344 1.351563 4.335937 2.027344 6.539062 2.027344zm0 0"/><path d="m211.140625 191.175781h33.609375v16.007813c0 2.320312 1.101562 4.109375 3.300781 5.367187 2.203125 1.253907 4.835938 1.886719 7.902344 1.886719 3.0625 0 5.691406-.632812 7.894531-1.886719 2.203125-1.257812 3.304688-3.046875 3.304688-5.367187v-16.007813h6.175781c1.726563 0 3.304687-1.023437 4.738281-3.054687 1.433594-2.035156 2.152344-4.269532 2.152344-6.710938 0-2.625-.601562-4.910156-1.789062-6.851562-1.203126-1.945313-2.902344-2.914063-5.101563-2.914063h-6.175781v-10.742187c0-2.355469-1.101563-4.140625-3.304688-5.367188-2.203125-1.230468-4.832031-1.847656-7.894531-1.847656-3.066406 0-5.699219.617188-7.902344 1.847656-2.199219 1.226563-3.300781 3.011719-3.300781 5.367188v10.742187h-12.351562l25.417968-50.984375c.480469-1.152344.71875-2.058594.71875-2.726562 0-2.394532-1.292968-4.40625-3.878906-6.03125-2.585938-1.632813-5.027344-2.445313-7.320312-2.445313-4.214844 0-7.328126 1.898438-9.335938 5.691407l-33.175781 64.433593c-.761719 1.421875-1.148438 2.84375-1.148438 4.261719 0 2.265625.699219 4.054688 2.082031 5.363281 1.390626 1.308594 3.183594 1.96875 5.382813 1.96875zm0 0"/><path d="m326.460938 145.21875c-4.214844 0-7.871094 1.0625-10.988282 3.183594-3.109375 2.121094-5.386718 4.726562-6.820312 7.8125v-42.3125c0-2.003906-1.097656-3.636719-3.300782-4.875-2.207031-1.246094-4.839843-1.867188-7.898437-1.867188-3.257813 0-5.914063.621094-7.96875 1.867188-2.0625 1.242187-3.09375 2.871094-3.09375 4.875v93.652344c0 1.816406 1.054687 3.414062 3.160156 4.800781 2.109375 1.386719 4.742188 2.082031 7.902344 2.082031 2.96875 0 5.574219-.714844 7.824219-2.144531 2.253906-1.429688 3.375-3.007813 3.375-4.726563v-32.074218c0-3.25.980468-5.851563 2.945312-7.808594 1.960938-1.953125 4.1875-2.933594 6.679688-2.933594 2.773437 0 5.191406 1.097656 7.25 3.292969 2.054687 2.199219 3.085937 4.679687 3.085937 7.449219v32.074218c0 2.097656 1.121094 3.769532 3.375 5.015625 2.25 1.238281 4.808594 1.855469 7.683594 1.855469 3.0625 0 5.695313-.597656 7.898437-1.792969 2.199219-1.195312 3.304688-2.894531 3.304688-5.097656v-32.167969c0-8.234375-2.421875-15.316406-7.25-21.253906-4.835938-5.9375-10.558594-8.90625-17.164062-8.90625zm0 0"/><path d="m511.789062 111.613281c-2.160156-1.433593-4.335937-2.152343-6.539062-2.152343h-50.984375c-2.488281 0-4.734375.71875-6.746094 2.152343-2.011719 1.4375-3.011719 3.019531-3.011719 4.738281v22.257813c0 1.921875 1.074219 3.546875 3.226563 4.882813 2.152344 1.34375 4.761719 2.011718 7.828125 2.011718 2.960938 0 5.601562-.667968 7.898438-2.011718 2.296874-1.335938 3.445312-2.960938 3.445312-4.882813v-9.617187h25.707031v10.046874l-35.328125 61.183594c-.675781 1.246094-1.003906 2.488282-1.003906 3.730469 0 3.160156 1.457031 5.839844 4.378906 8.042969 2.917969 2.207031 6.195313 3.304687 9.839844 3.304687 3.15625 0 5.261719-1.007812 6.316406-3.019531l33.605469-64.335938c3.058594-5.746093 4.59375-10.292968 4.59375-13.640624v-17.953126c0-1.726562-1.074219-3.300781-3.226563-4.738281zm0 0"/><path d="m187.269531 22.019531c.949219 0 1.914063-.109375 2.878907-.335937l.632812-.148438c6.742188-1.582031 10.933594-8.335937 9.351562-15.082031-1.582031-6.742187-8.339843-10.933594-15.085937-9.351563l-.632813.152344c-6.742187 1.582032-10.933593 8.335938-9.34375 15.078125 1.351563 5.785157 6.507813 9.6875 12.199219 9.6875zm0 0"/><path d="m493.195312 289.757812c.945313 0 1.90625-.105468 2.867188-.332031l.636719-.152343c6.746093-1.574219 10.9375-8.328126 9.355469-15.070313-1.578126-6.75-8.328126-10.933594-15.074219-9.363281l-.632813.152344c-6.75 1.578124-10.9375 8.324218-9.363281 15.074218 1.359375 5.785156 6.515625 9.691406 12.210937 9.691406zm0 0"/><path d="m313.246094 254.175781h-162.355469c-6.929687 0-12.546875 5.621094-12.546875 12.550781v60.425782c0 6.925781 5.617188 12.542968 12.546875 12.542968h162.355469c6.929687 0 12.542968-5.617187 12.542968-12.542968v-60.425782c0-6.929687-5.613281-12.550781-12.542968-12.550781zm-12.546875 60.425781h-137.261719v-35.332031h137.261719zm0 0"/><path d="m387.441406 218.117188 31.605469-102.976563c2.03125-6.621094-1.6875-13.644531-8.3125-15.675781-6.628906-2.03125-13.640625 1.691406-15.675781 8.316406l-31.605469 102.972656c-2.03125 6.625 1.6875 13.644532 8.308594 15.679688 1.230469.375 2.472656.550781 3.6875.550781 5.367187 0 10.332031-3.464844 11.992187-8.867187zm0 0"/><path d="m371.921875 277.136719c0 6.929687 5.617187 12.542969 12.546875 12.542969h57.296875c6.925781 0 12.546875-5.613282 12.546875-12.542969 0-6.929688-5.621094-12.550781-12.546875-12.550781h-57.296875c-6.929688 0-12.546875 5.621093-12.546875 12.550781zm0 0"/><path d="m493.835938 301.707031h-109.367188c-6.929688 0-12.546875 5.613281-12.546875 12.542969s5.617187 12.550781 12.546875 12.550781h109.367188c6.929687 0 12.550781-5.621093 12.550781-12.550781s-5.621094-12.542969-12.550781-12.542969zm0 0"/></svg>