<?xml version="1.0" standalone="yes"?>
<svg xmlns="http://www.w3.org/2000/svg" width="469" height="492">
<!-- <path style="fill:#ffffff; stroke:none;" d="M0 0L0 492L469 492L469 0L0 0z"/> -->
<path style="fill:#ffffff; stroke:none;" d="M75 47L75 78C75 87.4253 74.6828 96.029 80.6127 103.996C88.979 115.237 101.225 116 114 116L149 116C154.825 116 161.247 115.247 167 116.225C171.869 117.052 175.957 120.704 180 123.308C187.612 128.211 195.095 133.599 203 138L203 116C206.506 115.526 209.777 114.713 213 113.204C236.315 102.289 231 73.0669 231 52L197 52C196.728 64.7726 188.21 76.653 176 80.8989C169.183 83.2695 162.102 83 155 83C136.876 83 115.884 81.9989 109.443 61C108.025 56.3768 108.001 51.7837 108 47L75 47M136 273L170 273L170 223C170 204.873 170.406 186.719 190 178.465C203.05 172.967 221.059 176 235 176L257 176C260.282 176 264.707 175.264 267.787 176.603C270.715 177.877 271.891 181.393 273.309 184C276.47 189.816 279.603 199.012 284.634 203.397C289.254 207.422 302.143 205 308 205C306.568 195.266 302.996 185.368 300 176C313.091 176 329.675 173.273 342 178.258C362.009 186.35 363 205.483 363 224L363 273L396 273L396 223C396 202.402 395.878 182.63 381.699 166C371.758 154.34 358.323 145.668 343 143.296C327.567 140.908 311.578 142 296 142L220 142C195.206 142 171.077 143.185 153.174 163.004C136.382 181.592 136 203.402 136 227L136 273M215 274.532C207.208 276.389 201.288 283.324 199.529 291C198.59 295.101 198.783 301.545 204.043 302.458C214.117 304.206 211.521 284.828 223 286.842C226.71 287.493 229.721 290.666 231.122 294.004C232.704 297.772 233.359 303.418 238.985 302.458C247.574 300.991 244.097 288.775 241.03 284.001C235.458 275.326 224.823 272.192 215 274.532M308 274.529C299.909 276.4 293.798 283.07 291.9 291C290.82 295.516 291.337 301.496 297.012 302.458C306.747 304.107 303.583 283.308 315.999 286.988C323.784 289.294 323.195 303.959 331.956 302.319C340.209 300.774 336.317 288.587 333.518 284.015C328.263 275.431 317.5 272.333 308 274.529M136 303L136 349C136 371.689 136.24 392.763 151.924 410.961C162.445 423.17 177.043 430.753 193 432.714C206.328 434.352 220.574 433 234 433L314 433C338.085 433 361.235 432.204 378.826 412.985C395.702 394.549 396 373.458 396 350L396 303L363 303L363 353C363 365.538 363.288 377.809 354.671 387.985C344.389 400.127 329.545 400 315 400L221 400C205.274 400 188.722 401.207 177.468 387.961C169.184 378.211 170 366.978 170 355L170 303L136 303z"/>
</svg>
