<?xml version="1.0" encoding="UTF-8" standalone="no"?>
<!-- Created with Inkscape (http://www.inkscape.org/) -->

<svg
   xmlns:dc="http://purl.org/dc/elements/1.1/"
   xmlns:cc="http://creativecommons.org/ns#"
   xmlns:rdf="http://www.w3.org/1999/02/22-rdf-syntax-ns#"
   xmlns:svg="http://www.w3.org/2000/svg"
   xmlns="http://www.w3.org/2000/svg"
   xmlns:xlink="http://www.w3.org/1999/xlink"
   xmlns:sodipodi="http://sodipodi.sourceforge.net/DTD/sodipodi-0.dtd"
   xmlns:inkscape="http://www.inkscape.org/namespaces/inkscape"
   viewBox="0 0 744.09448819 1052.3622047"
   id="svg2"
   version="1.1"
   inkscape:version="0.91 r13725"
   sodipodi:docname="feedback.svg">
  <defs
     id="defs4">
    <clipPath
       clipPathUnits="userSpaceOnUse"
       id="clipPath28">
      <path
         d="m 1296.49,2117.1 v 0 15618.5 c 0,-188.1 1601.11,-4123.7 4374.4,-4123.7 1017.6,0 2193.03,529.9 3505.08,1969.2 1008.33,1106.2 2853.03,2381.3 5038.13,3050.7 h 5782.6 c 612.8,-214.3 1221.3,-508.7 1817.4,-896.2 4596.1,-2987.1 -649.6,-5935.1 3006,-8346.5 3.3,-29.5 5.6,-57.2 6.7,-82.9 v 0 c 2.2,-49.9 0,-92.2 -7.9,-125.2 -4.7,-19.3 -6,-37.9 -4.2,-55.7 -81.6,-231.7 -207.1,-659 -251.8,-1195.2 l -65.6,-2543.9 c 110.2,-17.2 217.1,-32.1 321.6,-44.8 2.3,-27.7 4.6,-56 7,-84.7 v 0 c 43.8,-540.4 94.9,-1257.7 104.7,-1776 h -3405 c 3.9,650.8 4.7,1469.9 -9.6,2026.8 -8.9,346.5 -44.6,836.8 -84.6,1322.2 v 0 c -12,145.1 -24.3,289.7 -36.4,429.9 266.7,1.5 508.5,38.7 508.5,38.7 0,0 -13.6,579.5 -44.6,1332 v 0 c -14.3,348.2 -32.4,733.4 -54.5,1115.5 -0.1,1.4 -0.1,2.4 -0.2,3.8 0,0.1 0,0.3 0,0.4 -39.8,685 -92.6,1359.4 -160.7,1790.8 l -0.6,24 -4.2,5.3 c -35.6,217.9 -75.4,369.1 -119.6,421.2 -1,1.3 -2.1,2.4 -3.1,3.5 v 0 c -38.6,41.4 -70.3,70.3 -120.4,95.6 -160.2,81.1 -364.8,91.7 -460.8,91.7 -34,0 -54.3,-1.3 -54.3,-1.3 v 0 c -20.4,2.5 -41,4.7 -61.8,6.8 l -393.6,687.2 -457.4,-169.2 64.4,-521.7 v 0 l 5.1,-41.4 c -39.8,-15.2 -69.7,-33.4 -86.7,-54.7 -40.3,-50.5 -82.5,-109.8 -124,-176.4 l 20.9,156.6 c 0,0 -754.6,-181.7 -857.9,-1421.7 -103.3,-1240 -568.3,-3079.4 -568.3,-3079.4 0,0 242.8,-152.9 414,-194.6 0,0 0,0 0.1,0 0.3,-0.1 0.7,-0.2 1.1,-0.2 0,-0.1 0.1,-0.1 0.2,-0.1 0.3,-0.1 0.6,-0.1 0.9,-0.2 0.1,0 0.3,-0.1 0.4,-0.1 0.2,-0.1 0.5,-0.1 0.7,-0.2 0.2,0 0.4,-0.1 0.5,-0.1 0.2,0 0.5,-0.1 0.7,-0.2 0.2,0 0.4,0 0.6,-0.1 0.2,0 0.3,-0.1 0.5,-0.1 0.2,-0.1 0.5,-0.1 0.7,-0.2 0.1,0 0.3,0 0.4,-0.1 0.3,0 0.6,-0.1 0.8,-0.2 0.1,0 0.2,0 0.3,0 0.3,-0.1 0.6,-0.2 0.9,-0.2 0.1,0 0.1,0 0.1,0 23.6,-5.3 45.7,-8.3 65.5,-8.3 21.6,0 40.3,3.6 55.1,11.7 37.2,20.5 69.7,48.6 98.1,83 257.2,310.9 188.1,1138 376.2,1556.9 l 107.2,801.7 c 38.3,-780.1 94.3,-1633.5 94.3,-1633.5 h 26.9 c 87,-110.5 360.5,-476.6 546.6,-933.7 61.1,-149.9 612.8,-1590.2 756.4,-3767.4 H 17973 v 1712.8 h 1200.1 v 0 h 617.2 V 6688.6 H 17973 v 1316.9 0 176.7 h 353.5 v 895.5 243.4 h -2038.2 -2726.9 c 43.5,229.9 205.8,1091.7 205.8,1167.1 0,17.9 -23.9,58 -62.8,111.2 78.6,5.3 146.9,12.4 185.1,21.5 0.1,0.1 0.1,0.1 0.1,0.1 0.1,0 0.2,0 0.3,0.1 0.1,0 0.1,0 0.1,0 0.4,0.1 0.8,0.2 1.1,0.2 0.3,0.1 0.5,0.2 0.8,0.2 0,0 0.1,0.1 0.1,0.1 0.1,0 0.2,0 0.4,0.1 0,0 0,0 0,0 0.1,0 0.2,0 0.3,0.1 0.1,0 0.1,0 0.1,0 0.2,0 0.3,0.1 0.4,0.1 0,0 0,0 0.1,0 0.1,0 0.2,0.1 0.3,0.1 0,0 0.1,0 0.1,0 0.1,0.1 0.2,0.1 0.3,0.1 0,0.1 0.1,0.1 0.1,0.1 0.1,0 0.2,0 0.3,0.1 0.1,0 0.1,0 0.1,0 0.1,0 0.2,0.1 0.3,0.1 0.1,0 0.1,0 0.2,0 0.1,0.1 0.2,0.1 0.2,0.1 0.1,0.1 0.1,0.1 0.2,0.1 0.1,0 0.2,0.1 0.3,0.1 0,0 0.1,0 0.1,0 0.1,0.1 0.2,0.1 0.3,0.1 0,0 0.1,0.1 0.1,0.1 0.1,0 0.2,0 0.3,0.1 0,0 0.1,0 0.2,0 0,0.1 0.1,0.1 0.2,0.1 0.1,0.1 0.1,0.1 0.2,0.1 0.1,0 0.1,0.1 0.2,0.1 0.1,0 0.1,0 0.2,0.1 0.1,0 0.1,0 0.2,0 0.1,0.1 0.2,0.1 0.3,0.1 0,0.1 0.1,0.1 0.1,0.1 0.1,0 0.2,0.1 0.3,0.1 0,0 0.1,0 0.1,0.1 0.1,0 0.2,0.1 0.3,0.1 0.1,0 0.1,0 0.1,0 0.2,0.1 0.3,0.1 0.4,0.2 0,0 0,0 0,0 30,12.9 49.8,53.5 60.9,109.8 281.2,32.8 537.3,80.3 675.1,156.7 459.8,255.1 890.3,1116.6 998.4,1214.6 v 0 c 122.1,110.8 506.4,339.8 519.6,410.7 3.7,19.3 -0.7,26.9 -10,26.9 -29.3,0 -106.9,-74.4 -136.8,-90.5 -30.7,-16.4 -80.6,-42.6 -94,-42.6 -7.6,0 -3.4,8.5 23.1,32.2 60,53.7 278.1,324.8 270.5,372.1 -1.3,7.8 -4.6,11.3 -9.7,11.3 -45.6,0 -232,-278.3 -328.9,-335.9 60.2,87.9 337.1,427.6 310.1,440.8 -2.2,1 -4.6,1.5 -7.2,1.5 -65.7,0 -279.9,-310.4 -340.3,-362.4 -2.4,-2.1 -4.3,-3.1 -5.5,-3.1 -9.2,0 16.6,58.3 69.5,134.1 25.2,36.2 52.5,75.5 76.1,113.5 55.6,90.1 53.2,122.9 34.3,122.9 -8,0 -19.1,-5.9 -29.9,-15.8 -72.8,-66.4 -249.4,-384.5 -284.6,-394.2 -0.6,-0.1 -1.1,-0.2 -1.7,-0.2 -14.3,0 -13.4,56.5 2.2,103.8 16.3,49 32.6,63.6 24.3,88 -4.4,12.8 -15.4,20.9 -29.2,20.9 -3,0 -6.1,-0.4 -9.3,-1.2 -85.7,-21.1 -171.5,-307.4 -179.9,-317.1 -283.5,-327.1 -655.7,-836.2 -1155,-1053 -57.1,-24.8 -246.2,-43.9 -467.6,-56.3 -18.5,31.4 -39.3,54.4 -61.9,65.3 -2.5,1.2 -7.2,1.8 -13.6,1.8 -36.8,0 -133.1,-18.6 -245.5,-37.3 -112.4,-18.6 -241,-37.2 -342.2,-37.2 -7.9,0 -15.6,0.1 -23,0.3 v 0 c -15.3,0.5 -33.2,1.7 -48.3,3.6 v 0 c -3.5,0.4 -6.9,0.7 -10.1,0.7 -13.6,0 -24.6,-3.9 -33.4,-11.2 -2,0.1 -4,0.2 -6.1,0.2 -47.9,37.2 -238,61.9 -470.1,68.4 -0.2,13.7 -0.2,27.8 0,42 v 0 c 3.2,197.3 45.7,431.7 49.9,454.3 0,0.1 0,0.1 0,0.1 0.1,0.5 0.1,0.9 0.2,1.2 0,0 0,0.1 0,0.1 0,0 0,0 0,0 0,0.1 0,0.1 0,0.1 0,0 0,0 0,0 0,0.1 0,0.1 0,0.1 0,0 0.1,0.1 0.1,0.1 0,0 0,0 0,0 0,0 0,0 0,0 0,0 0,0 0,0.1 0,0 0,0 0,0 0,0 0,0 0,0 v 0 0 c 0,0 0,0 0,0 v 0 0 l -502.7,105 v 0 l -55.8,11.6 17.7,-627.7 c -282,-23.6 -531,-76.6 -592.7,-168.2 v 0 l 237.1,-803.3 -566.8,28.1 -486.9,-1088.7 H 3478.43 V 8182.2 h 903.96 V 3480.7 H 1296.49 V 2117.1 M 31354.9,3480.7 h -4900.7 c 82.9,510.6 156.9,1163.8 93.2,1561 -5.9,36.8 -12.1,99.8 -18.8,179.1 v 0 c -4.3,49.6 -8.7,105.6 -13.5,165.4 72.3,14 145.6,29.6 220.4,46.9 0,203.3 0,439.9 0,672.3 v 0 767.2 c 0,106.7 0,193 0,249.1 0,269.1 -62.7,803.5 -172.8,1312.3 2611.6,-1504.4 4066.5,-3261.5 4792.2,-4953.3 v 0 m -5445.1,0 h -434.7 c 82.8,510.6 156.9,1163.8 93.1,1561 -5.5,34.7 -11.3,92.8 -17.6,165.8 v 0 c -2.4,26.7 -4.7,55.4 -7.2,85.7 5.6,0 11.3,0 16.9,0 80.5,0 160.8,1.9 241.3,5.8 1.5,-18.8 3.1,-37.9 4.6,-57.2 v 0 c 43.6,-538.5 93.8,-1247.5 103.6,-1761.1 M 12086.4,9321.1 h -936 l 626.2,1049.8 309.8,-1049.8"
         id="path26" />
    </clipPath>
    <linearGradient
       x1="0"
       y1="0"
       x2="1"
       y2="0"
       gradientUnits="userSpaceOnUse"
       gradientTransform="matrix(21035.7,15980.6,15980.6,-21035.7,3329.38,53.1995)"
       spreadMethod="pad"
       id="linearGradient38">
      <stop
         style="stop-opacity:1;stop-color:#689cc9"
         offset="0"
         id="stop32" />
      <stop
         style="stop-opacity:1;stop-color:#689cc9"
         offset="0.00540541"
         id="stop34" />
      <stop
         style="stop-opacity:1;stop-color:#9ccef6"
         offset="1"
         id="stop36" />
    </linearGradient>
    <clipPath
       clipPathUnits="userSpaceOnUse"
       id="clipPath72">
      <path
         d="m 13704.4,10599.4 v 0 c 78.6,5.3 146.9,12.4 185.1,21.5 -38.2,-9.1 -106.5,-16.2 -185.1,-21.5 m 185.2,21.6 c 0.1,0 0.2,0 0.3,0.1 -0.1,-0.1 -0.2,-0.1 -0.3,-0.1 m 0.4,0.1 c 0.4,0.1 0.8,0.2 1.1,0.2 0.3,0.1 0.5,0.2 0.8,0.2 -0.3,0 -0.5,-0.1 -0.8,-0.2 -0.3,0 -0.7,-0.1 -1.1,-0.2 m 2,0.5 c 0.1,0 0.2,0 0.4,0.1 -0.2,-0.1 -0.3,-0.1 -0.4,-0.1 m 0.4,0.1 c 0.1,0 0.2,0 0.3,0.1 -0.1,-0.1 -0.2,-0.1 -0.3,-0.1 m 0.4,0.1 c 0.2,0 0.3,0.1 0.4,0.1 -0.1,0 -0.2,-0.1 -0.4,-0.1 m 0.5,0.1 c 0.1,0 0.2,0.1 0.3,0.1 -0.1,0 -0.2,-0.1 -0.3,-0.1 m 0.4,0.1 c 0.1,0.1 0.2,0.1 0.3,0.1 -0.1,0 -0.2,0 -0.3,-0.1 m 0.4,0.2 c 0.1,0 0.2,0 0.3,0.1 -0.1,-0.1 -0.2,-0.1 -0.3,-0.1 m 0.4,0.1 c 0.1,0 0.2,0.1 0.3,0.1 -0.1,0 -0.2,-0.1 -0.3,-0.1 m 0.5,0.1 c 0.1,0.1 0.2,0.1 0.2,0.1 0,0 -0.1,0 -0.2,-0.1 m 0.4,0.2 c 0.1,0 0.2,0.1 0.3,0.1 -0.1,0 -0.2,-0.1 -0.3,-0.1 m 0.4,0.1 c 0.1,0.1 0.2,0.1 0.3,0.1 -0.1,0 -0.2,0 -0.3,-0.1 m 0.4,0.2 c 0.1,0 0.2,0 0.3,0.1 -0.1,-0.1 -0.2,-0.1 -0.3,-0.1 m 0.5,0.1 c 0,0.1 0.1,0.1 0.2,0.1 -0.1,0 -0.2,0 -0.2,-0.1 m 0.4,0.2 c 0.1,0 0.1,0.1 0.2,0.1 -0.1,0 -0.1,-0.1 -0.2,-0.1 m 0.4,0.2 c 0.1,0 0.1,0 0.2,0 -0.1,0 -0.1,0 -0.2,0 m 0.5,0.1 c 0,0.1 0.1,0.1 0.1,0.1 0,0 -0.1,0 -0.1,-0.1 m 0.4,0.2 c 0,0 0.1,0 0.1,0.1 0,-0.1 -0.1,-0.1 -0.1,-0.1 m 0.4,0.2 c 0.1,0 0.1,0 0.1,0 0,0 0,0 -0.1,0 m 0.5,0.2 c 0,0 0,0 0,0 0,0 0,0 0,0 m -711.7,680.4 c -17.2,0.6 -33.3,1.7 -48.3,3.6 15.1,-1.9 33,-3.1 48.3,-3.6 v 0"
         id="path70" />
    </clipPath>
    <linearGradient
       x1="0"
       y1="0"
       x2="1"
       y2="0"
       gradientUnits="userSpaceOnUse"
       gradientTransform="matrix(21035.7,15980.6,15980.6,-21035.7,3329.38,53.1995)"
       spreadMethod="pad"
       id="linearGradient80">
      <stop
         style="stop-opacity:1;stop-color:#4b80ab"
         offset="0"
         id="stop74" />
      <stop
         style="stop-opacity:1;stop-color:#4b80ab"
         offset="0.00540541"
         id="stop76" />
      <stop
         style="stop-opacity:1;stop-color:#6b9fc6"
         offset="1"
         id="stop78" />
    </linearGradient>
    <clipPath
       clipPathUnits="userSpaceOnUse"
       id="clipPath96">
      <path
         d="m 12086.9,9321.1 h -0.5 l -309.8,1049.8 0.2,0.2 310.1,-1050"
         id="path94" />
    </clipPath>
    <clipPath
       clipPathUnits="userSpaceOnUse"
       id="clipPath114">
      <path
         d="m 11773.6,10381.7 h -0.2 l -237.1,803.3 237.3,-803.3"
         id="path112" />
    </clipPath>
    <clipPath
       clipPathUnits="userSpaceOnUse"
       id="clipPath144">
      <path
         d="m 12619.6,11408.2 v 0 c 3.2,197.3 45.7,431.7 49.9,454.3 -4.2,-22.6 -46.7,-257 -49.9,-454.3 m 49.9,454.4 c 0.1,0.5 0.1,0.9 0.2,1.2 -0.1,-0.3 -0.1,-0.7 -0.2,-1.2 m 0.2,1.3 c 0,0 0,0 0,0 0,0 0,0 0,0 m 0,0.1 c 0,0 0,0 0,0 0,0 0,0 0,0 m 0,0.1 c 0,0 0.1,0.1 0.1,0.1 0,0 -0.1,-0.1 -0.1,-0.1 m 0.1,0.1 c 0,0 0,0 0,0 0,0 0,0 0,0 m 0,0.1 c 0,0 0,0 0,0 0,0 0,0 0,0 m 0,0 v 0 0 m 0,0 c 0,0 0,0 0,0 v 0 c 0,0 0,0 0,0 m 0,0 -502.7,105 c 0,0 0,0 0,0 l 502.7,-105"
         id="path142" />
    </clipPath>
    <linearGradient
       x1="0"
       y1="0"
       x2="1"
       y2="0"
       gradientUnits="userSpaceOnUse"
       gradientTransform="matrix(21035.7,15980.6,15980.6,-21035.7,3329.38,53.1995)"
       spreadMethod="pad"
       id="linearGradient152">
      <stop
         style="stop-opacity:1;stop-color:#685e58"
         offset="0"
         id="stop146" />
      <stop
         style="stop-opacity:1;stop-color:#685e58"
         offset="0.00540541"
         id="stop148" />
      <stop
         style="stop-opacity:1;stop-color:#9c7b6b"
         offset="1"
         id="stop150" />
    </linearGradient>
    <clipPath
       clipPathUnits="userSpaceOnUse"
       id="clipPath238">
      <path
         d="m 18909.6,7362 c -19.8,0 -41.9,3 -65.5,8.3 23.6,-5.3 45.7,-8.3 65.5,-8.3 21.6,0 40.3,3.6 55.1,11.7 37.2,20.5 69.7,48.6 98.1,83 -28.4,-34.4 -60.9,-62.5 -98.1,-83 -14.8,-8.1 -33.5,-11.7 -55.1,-11.7 m -65.6,8.3 c -0.3,0 -0.6,0.1 -0.9,0.2 0.3,-0.1 0.6,-0.2 0.9,-0.2 m -1.2,0.2 c -0.2,0.1 -0.5,0.2 -0.8,0.2 0.3,0 0.6,-0.1 0.8,-0.2 m -1.2,0.3 c -0.2,0.1 -0.5,0.1 -0.7,0.2 0.2,-0.1 0.5,-0.1 0.7,-0.2 m -1.2,0.3 c -0.2,0.1 -0.4,0.1 -0.6,0.1 0.2,0 0.4,0 0.6,-0.1 m -1.3,0.3 c -0.1,0 -0.3,0.1 -0.5,0.1 0.2,0 0.4,-0.1 0.5,-0.1 m -1.2,0.3 c -0.1,0 -0.3,0.1 -0.4,0.1 0.1,0 0.3,-0.1 0.4,-0.1 m -1.3,0.3 c -0.1,0 -0.2,0 -0.2,0.1 0,-0.1 0.1,-0.1 0.2,-0.1 m -1.3,0.3 c -0.1,0 -0.1,0 -0.1,0 0,0 0,0 0.1,0"
         id="path236" />
    </clipPath>
    <linearGradient
       x1="0"
       y1="0"
       x2="1"
       y2="0"
       gradientUnits="userSpaceOnUse"
       gradientTransform="matrix(21035.7,15980.6,15980.6,-21035.7,3329.38,53.1995)"
       spreadMethod="pad"
       id="linearGradient248">
      <stop
         style="stop-opacity:1;stop-color:#406b95"
         offset="0"
         id="stop242" />
      <stop
         style="stop-opacity:1;stop-color:#406b95"
         offset="0.00540541"
         id="stop244" />
      <stop
         style="stop-opacity:1;stop-color:#618ab1"
         offset="1"
         id="stop246" />
    </linearGradient>
    <clipPath
       clipPathUnits="userSpaceOnUse"
       id="clipPath274">
      <path
         d="m 21431.4,6829.7 v 0 c -12,145.1 -24.3,289.6 -36.4,429.9 v 0 c 12.1,-140.2 24.4,-284.8 36.4,-429.9"
         id="path272" />
    </clipPath>
    <clipPath
       clipPathUnits="userSpaceOnUse"
       id="clipPath306">
      <path
         d="m 21643.5,11540.8 c -1.6,9.9 -3.2,19.7 -4.8,29.3 l 4.2,-5.3 0.6,-24"
         id="path304" />
    </clipPath>
    <clipPath
       clipPathUnits="userSpaceOnUse"
       id="clipPath330">
      <path
         d="m 21858.9,8630.3 v 0 c -14.3,348.1 -32.4,733.5 -54.5,1115.5 22.1,-382.1 40.2,-767.3 54.5,-1115.5 m -54.7,1119.3 c 0,0.1 0,0.3 0,0.4 0,-0.1 0,-0.3 0,-0.4"
         id="path328" />
    </clipPath>
    <clipPath
       clipPathUnits="userSpaceOnUse"
       id="clipPath378">
      <path
         d="m 20032.1,12183.9 -64.4,521.7 64.4,-521.7 c 0,0 0,0 0,0"
         id="path376" />
    </clipPath>
    <clipPath
       clipPathUnits="userSpaceOnUse"
       id="clipPath456">
      <path
         d="m 26528.6,5220.8 c -4.3,49.6 -8.7,105.5 -13.5,165.4 v 0 c 4.8,-59.8 9.2,-115.8 13.5,-165.4 v 0 m -722.4,21 v 0 c -1.5,19.3 -3.1,38.4 -4.6,57.2 v 0 c 1.5,-18.8 3.1,-37.9 4.6,-57.2"
         id="path454" />
    </clipPath>
    <clipPath
       clipPathUnits="userSpaceOnUse"
       id="clipPath480">
      <path
         d="m 25550.6,5207.5 c -2.4,26.7 -4.7,55.4 -7.2,85.7 v 0 c 2.5,-30.3 4.8,-59 7.2,-85.7 v 0 m -724.7,49.2 v 0 c -2.4,28.7 -4.7,57 -7,84.7 v 0 c 2.3,-27.8 4.6,-55.9 7,-84.8"
         id="path478" />
    </clipPath>
    <clipPath
       clipPathUnits="userSpaceOnUse"
       id="clipPath528">
      <path
         d="m 24826.8,9306.2 c -1.1,25.7 -3.4,53.4 -6.7,82.9 v 0 c 3.3,-29.5 5.6,-57.2 6.7,-82.9 v 0"
         id="path526" />
    </clipPath>
    <linearGradient
       x1="0"
       y1="0"
       x2="1"
       y2="0"
       gradientUnits="userSpaceOnUse"
       gradientTransform="matrix(21035.7,15980.6,15980.6,-21035.7,3329.38,53.1995)"
       spreadMethod="pad"
       id="linearGradient538">
      <stop
         style="stop-opacity:1;stop-color:#2d81c2"
         offset="0"
         id="stop532" />
      <stop
         style="stop-opacity:1;stop-color:#2d81c2"
         offset="0.00540541"
         id="stop534" />
      <stop
         style="stop-opacity:1;stop-color:#43aaed"
         offset="1"
         id="stop536" />
    </linearGradient>
    <linearGradient
       inkscape:collect="always"
       xlink:href="#linearGradient80"
       id="linearGradient11880"
       gradientUnits="userSpaceOnUse"
       gradientTransform="matrix(21035.7,15980.6,15980.6,-21035.7,3329.38,53.1995)"
       spreadMethod="pad"
       x1="0"
       y1="0"
       x2="1"
       y2="0" />
    <linearGradient
       inkscape:collect="always"
       xlink:href="#linearGradient80"
       id="linearGradient11882"
       gradientUnits="userSpaceOnUse"
       gradientTransform="matrix(21035.7,15980.6,15980.6,-21035.7,3329.38,53.1995)"
       spreadMethod="pad"
       x1="0"
       y1="0"
       x2="1"
       y2="0" />
    <linearGradient
       inkscape:collect="always"
       xlink:href="#linearGradient80"
       id="linearGradient11884"
       gradientUnits="userSpaceOnUse"
       gradientTransform="matrix(21035.7,15980.6,15980.6,-21035.7,3329.38,53.1995)"
       spreadMethod="pad"
       x1="0"
       y1="0"
       x2="1"
       y2="0" />
    <linearGradient
       inkscape:collect="always"
       xlink:href="#linearGradient152"
       id="linearGradient11886"
       gradientUnits="userSpaceOnUse"
       gradientTransform="matrix(21035.7,15980.6,15980.6,-21035.7,3329.38,53.1995)"
       spreadMethod="pad"
       x1="0"
       y1="0"
       x2="1"
       y2="0" />
    <linearGradient
       inkscape:collect="always"
       xlink:href="#linearGradient248"
       id="linearGradient11888"
       gradientUnits="userSpaceOnUse"
       gradientTransform="matrix(21035.7,15980.6,15980.6,-21035.7,3329.38,53.1995)"
       spreadMethod="pad"
       x1="0"
       y1="0"
       x2="1"
       y2="0" />
    <linearGradient
       inkscape:collect="always"
       xlink:href="#linearGradient248"
       id="linearGradient11890"
       gradientUnits="userSpaceOnUse"
       gradientTransform="matrix(21035.7,15980.6,15980.6,-21035.7,3329.38,53.1995)"
       spreadMethod="pad"
       x1="0"
       y1="0"
       x2="1"
       y2="0" />
    <linearGradient
       inkscape:collect="always"
       xlink:href="#linearGradient248"
       id="linearGradient11892"
       gradientUnits="userSpaceOnUse"
       gradientTransform="matrix(21035.7,15980.6,15980.6,-21035.7,3329.38,53.1995)"
       spreadMethod="pad"
       x1="0"
       y1="0"
       x2="1"
       y2="0" />
    <linearGradient
       inkscape:collect="always"
       xlink:href="#linearGradient248"
       id="linearGradient11894"
       gradientUnits="userSpaceOnUse"
       gradientTransform="matrix(21035.7,15980.6,15980.6,-21035.7,3329.38,53.1995)"
       spreadMethod="pad"
       x1="0"
       y1="0"
       x2="1"
       y2="0" />
    <linearGradient
       inkscape:collect="always"
       xlink:href="#linearGradient152"
       id="linearGradient11896"
       gradientUnits="userSpaceOnUse"
       gradientTransform="matrix(21035.7,15980.6,15980.6,-21035.7,3329.38,53.1995)"
       spreadMethod="pad"
       x1="0"
       y1="0"
       x2="1"
       y2="0" />
    <linearGradient
       inkscape:collect="always"
       xlink:href="#linearGradient152"
       id="linearGradient11898"
       gradientUnits="userSpaceOnUse"
       gradientTransform="matrix(21035.7,15980.6,15980.6,-21035.7,3329.38,53.1995)"
       spreadMethod="pad"
       x1="0"
       y1="0"
       x2="1"
       y2="0" />
    <linearGradient
       inkscape:collect="always"
       xlink:href="#linearGradient152"
       id="linearGradient11900"
       gradientUnits="userSpaceOnUse"
       gradientTransform="matrix(21035.7,15980.6,15980.6,-21035.7,3329.38,53.1995)"
       spreadMethod="pad"
       x1="0"
       y1="0"
       x2="1"
       y2="0" />
  </defs>
  <sodipodi:namedview
     id="base"
     pagecolor="#ffffff"
     bordercolor="#666666"
     borderopacity="1.0"
     inkscape:pageopacity="0.0"
     inkscape:pageshadow="2"
     inkscape:zoom="0.16265528"
     inkscape:cx="2072.6686"
     inkscape:cy="96.656072"
     inkscape:document-units="px"
     inkscape:current-layer="layer1"
     showgrid="false"
     inkscape:window-width="1440"
     inkscape:window-height="855"
     inkscape:window-x="0"
     inkscape:window-y="901"
     inkscape:window-maximized="1" />
  <metadata
     id="metadata7">
    <rdf:RDF>
      <cc:Work
         rdf:about="">
        <dc:format>image/svg+xml</dc:format>
        <dc:type
           rdf:resource="http://purl.org/dc/dcmitype/StillImage" />
        <dc:title></dc:title>
      </cc:Work>
    </rdf:RDF>
  </metadata>
  <g
     inkscape:label="Layer 1"
     inkscape:groupmode="layer"
     id="layer1">
    <g
       id="g18"
       transform="matrix(0.04274487,0,0,-0.04274487,17.636156,623.81275)" />
    <g
       id="g22"
       transform="matrix(0.02222117,0,0,-0.02222117,17.636156,623.81275)">
      <g
         id="g24"
         clip-path="url(#clipPath28)">
        <g
           id="g30"
           transform="scale(1.92361,1.92361)" />
      </g>
    </g>
    <g
       id="g42"
       transform="matrix(0.04274487,0,0,-0.04274487,17.636156,623.81275)" />
    <path
       d="m 147.23459,571.08276 377.3042,0 0,-222.6253 -377.3042,0 z"
       style="fill:#05356b;fill-opacity:1;fill-rule:nonzero;stroke:none"
       id="path46"
       inkscape:connector-curvature="0" />
    <path
       d="m 117.71103,374.36865 418.37444,0 0,-37.19675 -418.37444,0 z"
       style="fill:#0858b1;fill-opacity:1;fill-rule:nonzero;stroke:none"
       id="path48"
       inkscape:connector-curvature="0" />
    <g
       id="g50"
       transform="matrix(0.03601249,0,0,-0.03601249,4.1046561,641.6013)">
      <path
         d="m 16300,1941.62 -10350.13,0 0,6181.9 10350.13,0 0,-6181.9"
         style="fill:#0086f5;fill-opacity:1;fill-rule:nonzero;stroke:none"
         id="path52"
         inkscape:connector-curvature="0" />
    </g>
    <path
       d="m 528.48448,478.07799 c 0,27.52605 -60.13732,49.8428 -134.32179,49.8428 -74.18285,0 -134.32049,-22.31675 -134.32049,-49.8428 0,-27.52603 60.13764,-49.8428 134.32049,-49.8428 74.18447,0 134.32179,22.31677 134.32179,49.8428"
       style="fill:#007ce3;fill-opacity:1;fill-rule:nonzero;stroke:none"
       id="path54"
       inkscape:connector-curvature="0" />
    <path
       d="m 394.16269,428.23519 c -62.13611,0 -114.41962,15.65732 -129.76046,36.91915 21.69163,-16.70571 67.75824,-28.23479 121.07937,-28.23479 74.18121,0 134.31853,22.31349 134.31853,49.8428 0,4.46791 -1.58404,8.80193 -4.55939,12.9204 8.48841,-6.53532 13.24374,-13.86428 13.24374,-21.60476 0,-27.52603 -60.13732,-49.8428 -134.32179,-49.8428"
       style="fill:#2374b8;fill-opacity:1;fill-rule:nonzero;stroke:none"
       id="path56"
       inkscape:connector-curvature="0" />
    <g
       id="g58"
       transform="matrix(0.03601249,0,0,-0.03601249,4.1046561,641.6013)">
      <path
         d="m 5949.87,6316.49 0,1104.08 10350.13,0 0,-160.25 c 0,0 -9740.81,-293.85 -10350.13,-943.83"
         style="fill:#107ed9;fill-opacity:1;fill-rule:nonzero;stroke:none"
         id="path60"
         inkscape:connector-curvature="0" />
    </g>
    <path
       d="m 472.49829,270.32292 c 16.30724,-7.08074 28.4634,-23.70808 37.72258,-34.39125 0.27434,-0.3168 3.07658,-9.66742 5.87558,-10.35656 0.58789,-0.14374 1.08431,0.1339 1.25741,0.64341 0.2711,0.7969 -0.26129,1.27375 -0.79364,2.8741 -0.52909,1.60036 -0.5389,3.52731 -0.0165,3.3836 1.14966,-0.3168 6.91745,-10.70603 9.29511,-12.87466 1.18883,-1.08432 2.44298,-0.69566 -0.14374,3.49791 -0.77077,1.24109 -1.6624,2.52463 -2.48543,3.70694 -1.95311,2.80225 -2.7794,4.86964 -2.09028,4.27848 2.05108,-1.76691 9.54333,-12.6689 11.34942,-11.78708 0.88183,0.43112 -8.16176,11.5258 -10.12791,14.39663 3.5175,-2.09024 10.65701,-13.10002 11.05873,-10.60151 0.24824,1.54483 -6.87496,10.39902 -8.83457,12.15288 -2.38093,2.12945 0.74138,0.50624 2.31559,-0.33966 1.28681,-0.6924 5.28442,-4.69328 4.79453,-2.0772 -0.43112,2.31561 -12.98243,9.79481 -16.97025,13.41357 l 0,0 c -3.53059,3.2007 -17.59082,31.3375 -32.60799,39.66912 -9.92218,5.50326 -38.66647,6.41122 -53.48117,7.71763 -3.14843,0.27434 -6.24789,-0.89489 -8.43939,-3.17458 l -0.38867,-0.40498 c -4.09231,-4.25563 -3.85389,-11.04897 0.52585,-15.00739 2.22416,-2.01188 5.19951,-2.95249 8.18138,-2.62915 7.37795,0.79365 39.31641,-0.0556 44.00316,-2.09025"
       style="fill:#f1763f;fill-opacity:1;fill-rule:nonzero;stroke:none"
       id="path62"
       inkscape:connector-curvature="0" />
    <path
       d="m 455.20469,270.02898 c -0.56175,-0.27109 -4.14785,0.44416 -8.46229,1.15943 -4.60509,0.76098 -10.03973,1.52524 -13.50499,1.08758 -6.71494,-0.84916 3.13538,23.68196 3.13538,23.68196 0,0 17.05845,-0.17311 21.41858,-1.2509 4.76187,-1.17903 2.48546,-22.22529 -2.58668,-24.67807"
       style="fill:#e0e0e0;fill-opacity:1;fill-rule:nonzero;stroke:none"
       id="path64"
       inkscape:connector-curvature="0" />
    <g
       id="g66"
       transform="matrix(0.03266024,0,0,-0.03266024,4.1046561,641.6013)">
      <g
         id="g68"
         clip-path="url(#clipPath72)">
        <path
           d="m 13704.4,10599.4 0,0 c 78.6,5.3 146.9,12.4 185.1,21.5 -38.2,-9.1 -106.5,-16.2 -185.1,-21.5 m 185.2,21.6 c 0.1,0 0.2,0 0.3,0.1 -0.1,-0.1 -0.2,-0.1 -0.3,-0.1 m 0.4,0.1 c 0.4,0.1 0.8,0.2 1.1,0.2 0.3,0.1 0.5,0.2 0.8,0.2 -0.3,0 -0.5,-0.1 -0.8,-0.2 -0.3,0 -0.7,-0.1 -1.1,-0.2 m 2,0.5 c 0.1,0 0.2,0 0.4,0.1 -0.2,-0.1 -0.3,-0.1 -0.4,-0.1 m 0.4,0.1 c 0.1,0 0.2,0 0.3,0.1 -0.1,-0.1 -0.2,-0.1 -0.3,-0.1 m 0.4,0.1 c 0.2,0 0.3,0.1 0.4,0.1 -0.1,0 -0.2,-0.1 -0.4,-0.1 m 0.5,0.1 c 0.1,0 0.2,0.1 0.3,0.1 -0.1,0 -0.2,-0.1 -0.3,-0.1 m 0.4,0.1 c 0.1,0.1 0.2,0.1 0.3,0.1 -0.1,0 -0.2,0 -0.3,-0.1 m 0.4,0.2 c 0.1,0 0.2,0 0.3,0.1 -0.1,-0.1 -0.2,-0.1 -0.3,-0.1 m 0.4,0.1 c 0.1,0 0.2,0.1 0.3,0.1 -0.1,0 -0.2,-0.1 -0.3,-0.1 m 0.5,0.1 c 0.1,0.1 0.2,0.1 0.2,0.1 0,0 -0.1,0 -0.2,-0.1 m 0.4,0.2 c 0.1,0 0.2,0.1 0.3,0.1 -0.1,0 -0.2,-0.1 -0.3,-0.1 m 0.4,0.1 c 0.1,0.1 0.2,0.1 0.3,0.1 -0.1,0 -0.2,0 -0.3,-0.1 m 0.4,0.2 c 0.1,0 0.2,0 0.3,0.1 -0.1,-0.1 -0.2,-0.1 -0.3,-0.1 m 0.5,0.1 c 0,0.1 0.1,0.1 0.2,0.1 -0.1,0 -0.2,0 -0.2,-0.1 m 0.4,0.2 c 0.1,0 0.1,0.1 0.2,0.1 -0.1,0 -0.1,-0.1 -0.2,-0.1 m 0.4,0.2 c 0.1,0 0.1,0 0.2,0 -0.1,0 -0.1,0 -0.2,0 m 0.5,0.1 c 0,0.1 0.1,0.1 0.1,0.1 0,0 -0.1,0 -0.1,-0.1 m 0.4,0.2 c 0,0 0.1,0 0.1,0.1 0,-0.1 -0.1,-0.1 -0.1,-0.1 m 0.4,0.2 c 0.1,0 0.1,0 0.1,0 0,0 0,0 -0.1,0 m 0.5,0.2 c 0,0 0,0 0,0 0,0 0,0 0,0 m -711.7,680.4 c -17.2,0.6 -33.3,1.7 -48.3,3.6 15.1,-1.9 33,-3.1 48.3,-3.6 l 0,0"
           style="fill:url(#linearGradient11880);fill-opacity:1;fill-rule:nonzero;stroke:none"
           id="path82"
           inkscape:connector-curvature="0" />
      </g>
    </g>
    <path
       d="m 451.69372,295.42231 c -4.90232,-6.71494 -17.11073,-19.86722 -19.92928,-22.68254 -0.0132,-0.0132 -0.0262,-0.0262 -0.0392,-0.0393 0.30045,-0.28741 0.68912,-0.44744 1.18229,-0.44744 0.1045,0 0.21556,0.0103 0.32987,0.0229 l 0,0 c 0.4899,0.062 1.01574,0.098 1.57749,0.11758 0.80998,0.99288 1.56768,2.16538 2.17191,3.5469 2.79245,6.38836 12.62644,13.66179 19.29241,14.40972 0.2874,0.0294 2.08699,0.062 3.87024,0.0947 -0.33314,2.13924 -1.01248,3.70693 -2.09027,4.17071 0,0 0,0 0,0 -0.003,0.003 -0.007,0.003 -0.0132,0.006 0,0 0,0 -0.003,0 -0.003,0 -0.007,0.003 -0.0103,0.003 0,0.003 -0.003,0.003 -0.003,0.003 -0.003,0 -0.007,0.003 -0.0103,0.003 0,0 -0.003,0 -0.003,0.003 -0.003,0 -0.007,0 -0.0103,0.003 -0.003,0 -0.003,0 -0.006,0 0,0.003 -0.003,0.003 -0.007,0.003 -0.003,0 -0.003,0.003 -0.007,0.003 -0.003,0 -0.003,0 -0.007,0.003 -0.003,0 -0.007,0 -0.007,0.003 -0.003,0 -0.007,0 -0.007,0 -0.003,0.003 -0.007,0.003 -0.0103,0.003 0,0 -0.003,0.003 -0.003,0.003 -0.003,0 -0.007,0 -0.0103,0.003 0,0 -0.003,0 -0.003,0 -0.003,0 -0.007,0.003 -0.0103,0.003 -0.003,0 -0.003,0 -0.006,0.003 0,0 -0.003,0 -0.007,0.003 -0.003,0 -0.003,0 -0.007,0 -0.003,0 -0.007,0.003 -0.0103,0.003 0,0 0,0 -0.003,0 -0.003,0.003 -0.007,0.003 -0.0103,0.003 0,0 -0.003,0 -0.003,0.003 -0.003,0 -0.007,0 -0.0103,0.003 0,0 -0.003,0 -0.003,0 -0.003,0 -0.007,0.003 -0.0103,0.003 -0.003,0 -0.003,0 -0.003,0 -0.003,0 -0.007,0.003 -0.0132,0.003 0,0 0,0 -0.003,0 -0.003,0.003 -0.007,0.003 -0.0103,0.003 0,0 0,0 0,0 -0.007,0.003 -0.0103,0.003 -0.0132,0.003 0,0 -0.003,0 -0.003,0.003 -0.0103,0 -0.0165,0.003 -0.0262,0.006 -0.0103,0 -0.0228,0.003 -0.036,0.006 0,0 0,0 -0.003,0 -0.003,0.003 -0.007,0.003 -0.0103,0.003 0,0 0,0 -0.003,0.003 -1.24763,0.29721 -3.47831,0.52909 -6.04541,0.70219"
       style="fill:#a7bdcc;fill-opacity:1;fill-rule:nonzero;stroke:none"
       id="path84"
       inkscape:connector-curvature="0" />
    <path
       d="m 370.11495,301.61469 -16.26807,36.37698 13.46908,0.80018 21.61781,-36.24307 -18.81882,-0.93409"
       style="fill:#f1763f;fill-opacity:1;fill-rule:nonzero;stroke:none"
       id="path86"
       inkscape:connector-curvature="0" />
    <path
       d="m 380.88303,276.29647 18.33546,62.06752 47.45533,0.64342 c 0,0 7.07095,-37.10857 7.07095,-39.95328 0,-2.8447 -18.43343,-22.77072 -21.98033,-26.31436 -3.54366,-3.54691 -45.90399,-3.83105 -50.88141,3.5567"
       style="fill:#dfdfdf;fill-opacity:1;fill-rule:nonzero;stroke:none"
       id="path88"
       inkscape:connector-curvature="0" />
    <g
       id="g90"
       transform="matrix(0.03266024,0,0,-0.03266024,4.1046561,641.6013)">
      <g
         id="g92"
         clip-path="url(#clipPath96)">
        <path
           d="m 12086.9,9321.1 -0.5,0 -309.8,1049.8 0.2,0.2 310.1,-1050"
           style="fill:url(#linearGradient11882);fill-opacity:1;fill-rule:nonzero;stroke:none"
           id="path106"
           inkscape:connector-curvature="0" />
      </g>
    </g>
    <g
       id="g108"
       transform="matrix(0.03266024,0,0,-0.03266024,4.1046561,641.6013)">
      <g
         id="g110"
         clip-path="url(#clipPath114)">
        <path
           d="m 11773.6,10381.7 -0.2,0 -237.1,803.3 237.3,-803.3"
           style="fill:url(#linearGradient11884);fill-opacity:1;fill-rule:nonzero;stroke:none"
           id="path124"
           inkscape:connector-curvature="0" />
      </g>
    </g>
    <path
       d="m 388.73129,302.88518 -0.1045,-0.35273 0.007,0 0.1045,0.34619 -0.007,0.006"
       style="fill:#9f6956;fill-opacity:1;fill-rule:nonzero;stroke:none"
       id="path126"
       inkscape:connector-curvature="0" />
    <path
       d="m 409.98003,337.1719 -11.11428,0 -10.12794,-34.29326 -0.10451,-0.34619 -7.75028,-26.23598 29.09699,60.87543"
       style="fill:#a7bdcc;fill-opacity:1;fill-rule:nonzero;stroke:none"
       id="path128"
       inkscape:connector-curvature="0" />
    <path
       d="m 380.88303,276.29647 -15.03351,28.73121 19.04746,9.60865 4.03679,-12.08755 c 0,0 1.60364,-16.6012 -8.05074,-26.25231"
       style="fill:#dddddd;fill-opacity:1;fill-rule:nonzero;stroke:none"
       id="path130"
       inkscape:connector-curvature="0" />
    <path
       d="m 388.17932,242.95364 c 0,6.63329 -4.77818,12.00916 -10.66683,12.00916 -5.89191,0 -10.66683,-5.37587 -10.66683,-12.00916 0,-6.63004 4.77492,-12.00918 10.66683,-12.00918 5.88865,0 10.66683,5.37914 10.66683,12.00918"
       style="fill:#26004a;fill-opacity:1;fill-rule:nonzero;stroke:none"
       id="path132"
       inkscape:connector-curvature="0" />
    <path
       d="m 419.31434,271.04143 c -5.09826,-2.97207 -19.77906,-2.97207 -23.59375,0.84264 -3.81147,3.81472 25.5501,29.3681 38.70891,29.3681 1.34234,0 -7.83519,-25.96817 -15.11516,-30.21074"
       style="fill:#320063;fill-opacity:1;fill-rule:nonzero;stroke:none"
       id="path134"
       inkscape:connector-curvature="0" />
    <path
       d="m 417.90342,254.11037 c 0,0 -3.69714,19.62554 0,23.32595 2.90023,2.90023 9.20365,13.46582 12.12675,17.74104 3.87024,5.65348 -0.98309,3.64488 -2.59976,3.18437 -8.18791,-2.34827 -27.03616,-22.06526 -27.03616,-22.06526 l -0.73159,-25.99428 18.24076,3.80818"
       style="fill:#f1763f;fill-opacity:1;fill-rule:nonzero;stroke:none"
       id="path136"
       inkscape:connector-curvature="0" />
    <g
       id="g138"
       transform="matrix(0.03266024,0,0,-0.03266024,4.1046561,641.6013)">
      <g
         id="g140"
         clip-path="url(#clipPath144)">
        <path
           d="m 12619.6,11408.2 0,0 c 3.2,197.3 45.7,431.7 49.9,454.3 -4.2,-22.6 -46.7,-257 -49.9,-454.3 m 49.9,454.4 c 0.1,0.5 0.1,0.9 0.2,1.2 -0.1,-0.3 -0.1,-0.7 -0.2,-1.2 m 0.2,1.3 c 0,0 0,0 0,0 0,0 0,0 0,0 m 0,0.1 c 0,0 0,0 0,0 0,0 0,0 0,0 m 0,0.1 c 0,0 0.1,0.1 0.1,0.1 0,0 -0.1,-0.1 -0.1,-0.1 m 0.1,0.1 c 0,0 0,0 0,0 0,0 0,0 0,0 m 0,0.1 c 0,0 0,0 0,0 0,0 0,0 0,0 m 0,0 0,0 0,0 m 0,0 c 0,0 0,0 0,0 l 0,0 c 0,0 0,0 0,0 m 0,0 -502.7,105 c 0,0 0,0 0,0 l 502.7,-105"
           style="fill:url(#linearGradient11886);fill-opacity:1;fill-rule:nonzero;stroke:none"
           id="path154"
           inkscape:connector-curvature="0" />
      </g>
    </g>
    <path
       d="m 416.26388,269.0067 c -1.4991,-0.69892 -2.91657,-1.44684 -4.21971,-2.22742 -4.18703,-2.50832 -8.23693,-8.88033 -10.55906,-16.09824 l 16.41831,3.42933 c 0,0 0,0 0,0 l 0,0 0,0 c 0,0 0,0 0,0 0,0 0,0 0,0 0,0.003 0,0.003 0,0.003 0,0 0,0 0,0 0,0 0,0 0,0 0,0 -0.003,0.003 -0.003,0.003 0,0 0,0 0,0.003 0,0 0,0 0,0 0,0 0,0 0,0.003 0,0 0,0 0,0 0,0 0,0.003 0,0.003 -0.003,0.0103 -0.003,0.0229 -0.007,0.0392 0,0 0,0 0,0.003 -0.13713,0.73813 -1.52525,8.39368 -1.62974,14.83755"
       style="fill:#f1471c;fill-opacity:1;fill-rule:nonzero;stroke:none"
       id="path156"
       inkscape:connector-curvature="0" />
    <path
       d="m 435.66732,299.24683 c 0,0 0.2123,-0.53563 2.67162,-0.53563 2.45931,0 6.13359,3.43912 6.13359,3.43912 0,0 -1.11046,2.5475 -4.85004,0.8361 -3.74287,-1.7114 -3.95517,-3.73959 -3.95517,-3.73959"
       style="fill:#320063;fill-opacity:1;fill-rule:nonzero;stroke:none"
       id="path158"
       inkscape:connector-curvature="0" />
    <path
       d="m 413.00112,219.91835 c 0,0 18.55101,19.27609 17.16623,33.78704 -1.38806,14.51094 -20.11219,6.50591 -27.94739,0.62707 -7.83518,-5.87885 -9.7556,-36.1059 10.78116,-34.41411"
       style="fill:#f1763f;fill-opacity:1;fill-rule:nonzero;stroke:none"
       id="path160"
       inkscape:connector-curvature="0" />
    <path
       d="m 417.2992,210.71797 c 3.10598,2.67815 4.41892,7.63596 2.59648,11.39189 -2.42012,4.97742 -8.96195,4.69328 -14.65137,8.9587 -5.68942,4.2687 -5.58165,22.04567 -5.58165,22.04567 0,0 -22.57802,4.125 -17.31644,-17.20868 5.26156,-21.33367 8.3904,-15.9284 14.93551,-20.48124 5.6241,-3.9127 13.29272,-10.44801 20.01747,-4.70634"
       style="fill:#320063;fill-opacity:1;fill-rule:nonzero;stroke:none"
       id="path162"
       inkscape:connector-curvature="0" />
    <path
       d="m 400.15585,267.82113 c 0,0 8.9489,8.08669 15.00411,15.7945 3.30195,4.20012 7.11665,7.97563 11.29718,11.30045 l 7.97236,6.33609 c 0,0 -8.91624,-0.33314 -12.92364,-2.43319 -4.01071,-2.10005 -3.23991,-4.4222 -8.03443,-4.4222 -4.79454,0 -7.5478,-1.84204 -10.20959,-4.50385 -2.66182,-2.6618 -4.91864,-3.4979 -7.19178,-5.77107 -2.27317,-2.27314 -7.28978,-11.41149 -5.68617,-13.01183 1.60037,-1.60362 9.77196,-3.2889 9.77196,-3.2889"
       style="fill:#320063;fill-opacity:1;fill-rule:nonzero;stroke:none"
       id="path164"
       inkscape:connector-curvature="0" />
    <path
       d="m 436.81696,301.17051 c -0.72832,1.6069 -2.62588,2.32215 -4.23277,1.59383 -1.61014,-0.72834 -2.32541,-2.62262 -1.59709,-4.23278 0.72834,-1.61014 2.62263,-2.32213 4.23276,-1.59381 1.61018,0.72832 2.32543,2.62261 1.5971,4.23276"
       style="fill:#320063;fill-opacity:1;fill-rule:nonzero;stroke:none"
       id="path166"
       inkscape:connector-curvature="0" />
    <path
       d="m 432.35232,301.06273 c 0,0 -4.16747,1.068 -4.16747,3.95516 0,2.8839 -1.71137,4.05967 -1.71137,4.05967 0,0 4.01066,0.48337 5.87884,-1.38806 1.87143,-1.87143 0,-6.62677 0,-6.62677"
       style="fill:#320063;fill-opacity:1;fill-rule:nonzero;stroke:none"
       id="path168"
       inkscape:connector-curvature="0" />
    <g
       id="g170"
       transform="matrix(0.03672089,0,0,-0.03672089,4.1046561,641.6013)">
      <path
         d="m 16300,7277.43 -11561.28,0 0,1012.97 11561.28,0 0,-1012.97"
         style="fill:#76bbf5;fill-opacity:1;fill-rule:nonzero;stroke:none"
         id="path172"
         inkscape:connector-curvature="0" />
    </g>
    <g
       id="g174"
       transform="matrix(0.03672089,0,0,-0.03672089,4.1046561,641.6013)">
      <path
         d="m 16300,8073.91 -11561.28,0 0,216.49 11561.28,0 0,-216.49"
         style="fill:#b5edff;fill-opacity:1;fill-rule:nonzero;stroke:none"
         id="path176"
         inkscape:connector-curvature="0" />
    </g>
    <path
       d="m 349.97337,315.47897 -104.46182,-2.50505 -20.27255,-59.72578 103.01302,-1.76693 21.72135,63.99776"
       style="fill:#003f8c;fill-opacity:1;fill-rule:nonzero;stroke:none"
       id="path178"
       inkscape:connector-curvature="0" />
    <path
       d="m 245.51155,312.97392 104.46182,2.50505 -1.81265,-5.33995 c -13.26659,-0.71527 -41.33316,-3.55017 -67.09687,-14.7755 -22.45425,-9.78174 -38.9395,-28.73775 -47.95797,-42.24929 l -7.86688,0.1339 20.27255,59.72577"
       style="fill:#002f69;fill-opacity:1;fill-rule:nonzero;stroke:none"
       id="path180"
       inkscape:connector-curvature="0" />
    <path
       d="m 287.85262,283.9357 c -10.1028,9.93851 -17.33574,25.71015 -15.97544,46.43961 l -15.18113,-2.26662 c 4.13315,-23.63623 16.36539,-39.60055 29.21491,-47.58924 l 1.94166,3.41625"
       style="fill:#2374b8;fill-opacity:1;fill-rule:nonzero;stroke:none"
       id="path182"
       inkscape:connector-curvature="0" />
    <path
       d="m 305.30101,337.1719 -58.94128,0 0,-10.804 48.13533,0 c 5.968,0 10.80595,4.83697 10.80595,10.804 l 0,0"
       style="fill:#003f8c;fill-opacity:1;fill-rule:nonzero;stroke:none"
       id="path184"
       inkscape:connector-curvature="0" />
    <path
       d="m 301.74497,337.1719 -58.94129,0 0,-10.804 48.13533,0 c 5.968,0 10.80596,4.83697 10.80596,10.804 l 0,0"
       style="fill:#002f69;fill-opacity:1;fill-rule:nonzero;stroke:none"
       id="path186"
       inkscape:connector-curvature="0" />
    <g
       id="g188"
       transform="matrix(0.04274487,0,0,-0.04274487,17.636156,623.81275)" />
    <g
       id="g192"
       transform="matrix(0.03207937,0,0,-0.03207937,17.636156,623.81275)" />
    <g
       id="g196"
       transform="matrix(0.04037688,0,0,-0.04037688,4.1046561,641.6013)">
      <path
         d="m 16300,2477.37 0,-507.49 -131.7,-164.29 -209.7,93.43 c 0,0 25.1,94.56 27,168.25 1.9,73.77 -20.2,323.79 -20.2,323.79 l 334.6,86.31"
         style="fill:#e75237;fill-opacity:1;fill-rule:nonzero;stroke:none"
         id="path198"
         inkscape:connector-curvature="0" />
    </g>
    <g
       id="g200"
       transform="matrix(0.04068879,0,0,-0.04068879,4.1046561,641.6013)">
      <path
         d="m 16198.5,2022.37 c 0,0 58.1,-71.36 79.7,-196.74 21.8,-125.38 -6.3,-246.18 -6.3,-246.18 0,0 -609.3,-72.41 -851.5,-42.79 -242.2,29.54 -266.1,70.08 -264.3,138.31 1.8,68.15 327.9,68.06 420,155.48 92.2,87.49 216.8,270.66 276,245.86 59.2,-24.88 54.7,-134.61 132.9,-136.62 78.2,-2 176.2,121.93 213.5,82.68"
         style="fill:#00424c;fill-opacity:1;fill-rule:nonzero;stroke:none"
         id="path202"
         inkscape:connector-curvature="0" />
    </g>
    <g
       id="g204"
       transform="matrix(0.04303248,0,0,-0.04303248,4.1046561,641.6013)">
      <path
         d="m 16300,2171.56 0,-476.17 -123.6,-154.15 -196.8,87.66 c 0,0 23.6,88.72 25.4,157.87 1.8,69.21 -18.9,303.81 -18.9,303.81 l 313.9,80.98"
         style="fill:#e75237;fill-opacity:1;fill-rule:nonzero;stroke:none"
         id="path206"
         inkscape:connector-curvature="0" />
    </g>
    <g
       id="g208"
       transform="matrix(0.04334406,0,0,-0.04334406,4.1046561,641.6013)">
      <path
         d="m 16204.8,1746.64 c 0,0 54.4,-66.98 74.9,-184.68 20.3,-117.7 -6.1,-231.11 -6.1,-231.11 0,0 -571.9,-67.96 -799.3,-40.16 -227.3,27.73 -249.8,65.78 -248.1,129.83 1.6,63.98 307.9,63.9 394.3,146.03 86.5,82.06 203.4,254.01 259,230.73 55.7,-23.36 51.5,-126.36 124.8,-128.25 73.4,-1.88 165.5,114.46 200.5,77.61"
         style="fill:#00424c;fill-opacity:1;fill-rule:nonzero;stroke:none"
         id="path210"
         inkscape:connector-curvature="0" />
    </g>
    <g
       id="g212"
       transform="matrix(0.03965378,0,0,-0.03965378,4.1046561,641.6013)">
      <path
         d="m 16300,4277.55 -1808.5,0 0,1231.42 1808.5,0 0,-1231.42"
         style="fill:#7f3100;fill-opacity:1;fill-rule:nonzero;stroke:none"
         id="path214"
         inkscape:connector-curvature="0" />
    </g>
    <g
       id="g216"
       transform="matrix(0.03965378,0,0,-0.03965378,4.1046561,641.6013)">
      <path
         d="m 16300,4277.55 -508.3,0 c 26.4,404.82 124.8,971.4 172.8,1231.42 l 335.5,0 0,-1231.42"
         style="fill:#4f2919;fill-opacity:1;fill-rule:nonzero;stroke:none"
         id="path218"
         inkscape:connector-curvature="0" />
    </g>
    <g
       id="g220"
       transform="matrix(0.03818113,0,0,-0.03818113,4.1046561,641.6013)">
      <path
         d="m 16300,5603.22 -106.1,0 0,293.31 c 0,64.93 -52.8,117.7 -117.7,117.7 l -228.7,0 c -64.8,0 -117.6,-52.77 -117.6,-117.7 l 0,-293.31 -106.1,0 0,293.31 c 0,123.35 100.3,223.78 223.7,223.78 l 228.7,0 c 123.4,0 223.8,-100.43 223.8,-223.78 l 0,-293.31"
         style="fill:#7f3100;fill-opacity:1;fill-rule:nonzero;stroke:none"
         id="path222"
         inkscape:connector-curvature="0" />
    </g>
    <g
       id="g224"
       transform="matrix(0.03785256,0,0,-0.03785256,4.1046561,641.6013)">
      <path
         d="m 16001.4,6604.8 c 0,0 -124.9,-227.36 -124.9,-320.97 0,-93.62 -53.5,-338.84 62.4,-361.1 116,-22.35 330,49.01 330,49.01 0,0 31.1,133.91 -66.9,289.82 -98.1,156.01 31.1,378.88 31.1,378.88 l -231.7,-35.64"
         style="fill:#f1763f;fill-opacity:1;fill-rule:nonzero;stroke:none"
         id="path226"
         inkscape:connector-curvature="0" />
    </g>
    <g
       id="g228"
       transform="matrix(0.03976809,0,0,-0.03976809,4.1046561,641.6013)">
      <path
         d="m 16300,9911.01 c 0,0 -619.7,-149.21 -704.6,-1167.58 -84.8,-1018.35 -466.7,-2528.99 -466.7,-2528.99 0,0 342.6,-215.83 446.4,-158.67 307,169.1 217.9,964.66 389.5,1346.8 l 335.4,2508.44"
         style="fill:#003982;fill-opacity:1;fill-rule:nonzero;stroke:none"
         id="path230"
         inkscape:connector-curvature="0" />
    </g>
    <g
       id="g232"
       transform="matrix(0.03266024,0,0,-0.03266024,4.1046561,641.6013)">
      <g
         id="g234"
         clip-path="url(#clipPath238)">
        <g
           id="g240"
           transform="scale(1.1695,1.1695)">
          <path
             d="m 16169,6295.01 c -16.9,0 -35.8,2.57 -56,7.1 20.2,-4.53 39.1,-7.1 56,-7.1 18.5,0 34.5,3.08 47.1,10.01 31.8,17.53 59.6,41.56 83.9,70.97 -24.3,-29.41 -52.1,-53.44 -83.9,-70.97 -12.6,-6.93 -28.6,-10.01 -47.1,-10.01 m -56.1,7.1 c -0.2,0 -0.5,0.09 -0.8,0.17 0.3,-0.08 0.6,-0.17 0.8,-0.17 m -1,0.17 c -0.2,0.09 -0.4,0.17 -0.7,0.17 0.3,0 0.5,-0.08 0.7,-0.17 m -1,0.26 c -0.2,0.08 -0.5,0.08 -0.6,0.17 0.1,-0.09 0.4,-0.09 0.6,-0.17 m -1.1,0.26 c -0.1,0.08 -0.3,0.08 -0.5,0.08 0.2,0 0.4,0 0.5,-0.08 m -1.1,0.25 c -0.1,0 -0.2,0.09 -0.4,0.09 0.2,0 0.3,-0.09 0.4,-0.09 m -1,0.26 c -0.1,0 -0.3,0.08 -0.3,0.08 0,0 0.2,-0.08 0.3,-0.08 m -1.1,0.25 c -0.1,0 -0.2,0 -0.2,0.09 0,-0.09 0.1,-0.09 0.2,-0.09 m -1.1,0.26 c -0.1,0 -0.1,0 -0.1,0 0,0 0,0 0.1,0"
             style="fill:url(#linearGradient11888);fill-opacity:1;fill-rule:nonzero;stroke:none"
             id="path250"
             inkscape:connector-curvature="0" />
        </g>
      </g>
    </g>
    <g
       id="g252"
       transform="matrix(0.03916453,0,0,-0.03916453,4.1046561,641.6013)">
      <path
         d="m 15769.1,6139.33 c -16.5,0 -34.9,2.5 -54.6,6.92 0,0 0,0 -0.1,0 -0.2,0 -0.5,0.09 -0.7,0.17 -0.1,0 -0.2,0 -0.3,0 -0.1,0.08 -0.4,0.17 -0.6,0.17 -0.1,0.08 -0.3,0.08 -0.4,0.08 -0.1,0.08 -0.4,0.08 -0.6,0.17 -0.1,0 -0.2,0.08 -0.4,0.08 -0.1,0.08 -0.3,0.08 -0.5,0.08 -0.1,0.09 -0.3,0.09 -0.6,0.17 0,0 -0.2,0.08 -0.4,0.08 -0.1,0.09 -0.4,0.09 -0.6,0.17 0,0 -0.2,0.08 -0.3,0.08 -0.3,0.09 -0.5,0.09 -0.7,0.17 -0.1,0 -0.2,0 -0.2,0.09 -0.4,0 -0.7,0.08 -0.9,0.16 -0.1,0 -0.1,0 -0.1,0 -21.1,5.17 -43.6,12.34 -66.5,20.85 182.6,246.51 444,1234.71 654,2130.17 1.7,-37.61 3.6,-75.55 5.4,-113.75 l -89.4,-668.55 c -156.9,-349.33 -99.2,-1039.07 -313.7,-1298.34 -23.7,-28.68 -50.8,-52.12 -81.8,-69.21 -12.4,-6.75 -28,-9.76 -46,-9.76"
         style="fill:#002e69;fill-opacity:1;fill-rule:nonzero;stroke:none"
         id="path254"
         inkscape:connector-curvature="0" />
    </g>
    <g
       id="g256"
       transform="matrix(0.04018321,0,0,-0.04018321,4.1046561,641.6013)">
      <path
         d="m 16300,9857.68 c 0,0 -260.9,17.49 -500.3,-410.86 -239.3,-428.33 -283.2,-2952.75 -161.8,-3252.26 139.2,-343.64 413.8,-136.71 413.8,-136.71 0,0 145.6,1640.53 78.2,2476.65 -67.4,836.13 170.1,1323.18 170.1,1323.18"
         style="fill:#000005;fill-opacity:1;fill-rule:nonzero;stroke:none"
         id="path258"
         inkscape:connector-curvature="0" />
    </g>
    <g
       id="g260"
       transform="matrix(0.04138346,0,0,-0.04138346,4.1046561,641.6013)">
      <path
         d="m 15759.4,6770.7 c 0,0 121.5,-89.89 214.7,-253.73 325.9,-573.6 0,-4355.17 0,-4355.17 l -459.4,12.23 c 0,0 0,1559.56 0,2345.85 0,788.97 -14.2,1937.27 -14.2,1937.27 l 258.9,313.55"
         style="fill:#002b62;fill-opacity:1;fill-rule:nonzero;stroke:none"
         id="path262"
         inkscape:connector-curvature="0" />
    </g>
    <g
       id="g264"
       transform="matrix(0.04316607,0,0,-0.04316607,4.1046561,641.6013)">
      <path
         d="m 14859.8,6216.46 c 0,0 265.1,-316.34 434.5,-732.41 53.2,-130.51 598.1,-1554.24 598.1,-3632.75 l 387,0 c 0,0 20.6,1515.58 0,2315.78 -17,663.25 -164.2,2023.43 -164.2,2257.98 l -1261.3,57.88 5.9,-266.48"
         style="fill:#003982;fill-opacity:1;fill-rule:nonzero;stroke:none"
         id="path266"
         inkscape:connector-curvature="0" />
    </g>
    <g
       id="g268"
       transform="matrix(0.03266024,0,0,-0.03266024,4.1046561,641.6013)">
      <g
         id="g270"
         clip-path="url(#clipPath274)">
        <g
           id="g276"
           transform="scale(1.31481,1.31481)">
          <path
             d="m 16300,5194.44 0,0 c -9.1,110.36 -18.5,220.26 -27.7,326.97 l 0,0 c 9.2,-106.64 18.6,-216.61 27.7,-326.97"
             style="fill:url(#linearGradient11890);fill-opacity:1;fill-rule:nonzero;stroke:none"
             id="path286"
             inkscape:connector-curvature="0" />
        </g>
      </g>
    </g>
    <g
       id="g288"
       transform="matrix(0.04294202,0,0,-0.04294202,4.1046561,641.6013)">
      <path
         d="m 16300,5194.44 c -192.6,27.69 -490.9,98.34 -585.9,274.72 -112.8,209.53 -158.5,595.52 -173.2,753.64 l 145.8,0 c 14.9,-278.82 40.1,-488.05 76.4,-554.07 64.9,-117.89 288.9,-147.4 496.6,-147.4 4.3,0 8.4,0 12.6,0.08 9.2,-106.71 18.6,-216.61 27.7,-326.97"
         style="fill:#002e69;fill-opacity:1;fill-rule:nonzero;stroke:none"
         id="path290"
         inkscape:connector-curvature="0" />
    </g>
    <g
       id="g292"
       transform="matrix(0.04346883,0,0,-0.04346883,4.1046561,641.6013)">
      <path
         d="m 14989.8,9082.15 c -135.4,-169.35 -297.2,-470.66 -326.1,-803.57 -26.6,-307.18 93.2,-2131.19 93.2,-2131.19 l 1409.1,0 c 0,0 134,2730.95 0,2864.88 -59.6,59.63 -391.3,129.35 -477.4,139.76 -285,34.41 -630.4,15.77 -698.8,-69.88"
         style="fill:#6edbf4;fill-opacity:1;fill-rule:nonzero;stroke:none"
         id="path294"
         inkscape:connector-curvature="0" />
    </g>
    <g
       id="g296"
       transform="matrix(0.04388785,0,0,-0.04388785,4.1046561,641.6013)">
      <path
         d="m 15538.7,9064.62 c 0,0 0,-230.7 -115.3,-749.76 -115.4,-519.06 -126.9,-2537.62 0,-2768.31 126.8,-230.7 876.6,-115.35 876.6,-115.35 0,0 -76.9,3268.45 -288.4,3495 -28.7,30.79 -52.3,52.3 -89.6,71.16 -161.3,81.7 -383.3,67.26 -383.3,67.26"
         style="fill:#003982;fill-opacity:1;fill-rule:nonzero;stroke:none"
         id="path298"
         inkscape:connector-curvature="0" />
    </g>
    <g
       id="g300"
       transform="matrix(0.03266024,0,0,-0.03266024,4.1046561,641.6013)">
      <g
         id="g302"
         clip-path="url(#clipPath306)">
        <g
           id="g308"
           transform="scale(1.32782,1.32782)">
          <path
             d="m 16300,8691.54 c -1.2,7.44 -2.4,14.84 -3.6,22.08 l 3.1,-4.03 0.5,-18.05"
             style="fill:url(#linearGradient11892);fill-opacity:1;fill-rule:nonzero;stroke:none"
             id="path318"
             inkscape:connector-curvature="0" />
        </g>
      </g>
    </g>
    <g
       id="g320"
       transform="matrix(0.04344727,0,0,-0.04344727,4.1046561,641.6013)">
      <path
         d="m 16252.8,7363.81 c -42.4,7.67 -87.7,15.86 -134.3,24.36 6.9,182.86 -194.1,696.83 -251.1,923.62 -65.3,259.57 142.1,717.25 142.1,717.25 l 256.8,-331.49 c 1.2,-7.23 2.4,-14.62 3.6,-22.04 l 30.1,-1289.22 c 0,0 -19.7,-9.7 -47.2,-22.48"
         style="fill:#002e69;fill-opacity:1;fill-rule:nonzero;stroke:none"
         id="path322"
         inkscape:connector-curvature="0" />
    </g>
    <g
       id="g324"
       transform="matrix(0.03266024,0,0,-0.03266024,4.1046561,641.6013)">
      <g
         id="g326"
         clip-path="url(#clipPath330)">
        <g
           id="g332"
           transform="scale(1.34104,1.34104)">
          <path
             d="m 16300,6435.54 0,0 c -10.7,259.58 -24.2,546.97 -40.6,831.82 16.4,-284.93 29.9,-572.17 40.6,-831.82 m -40.8,834.66 c 0,0.07 0,0.22 0,0.29 0,-0.07 0,-0.22 0,-0.29"
             style="fill:url(#linearGradient11894);fill-opacity:1;fill-rule:nonzero;stroke:none"
             id="path342"
             inkscape:connector-curvature="0" />
        </g>
      </g>
    </g>
    <g
       id="g344"
       transform="matrix(0.04131456,0,0,-0.04131456,4.1046561,641.6013)">
      <path
         d="m 16295.9,7768.34 c 0,0.23 0.1,0.47 0.1,0.71 0,3.48 0.1,6.95 0.3,10.43 -0.2,-3.71 -0.3,-7.43 -0.4,-11.14 m 0.4,11.22 c 0,0.4 0,0.79 0,1.19 0,-0.4 0,-0.79 0,-1.19 m 2.8,86.88 c 0.3,7.67 0.6,15.34 0.9,22.93 l 0,0 c -0.3,-7.59 -0.6,-15.26 -0.9,-22.93"
         style="fill:#4492b0;fill-opacity:1;fill-rule:nonzero;stroke:none"
         id="path346"
         inkscape:connector-curvature="0" />
    </g>
    <g
       id="g348"
       transform="matrix(0.04379869,0,0,-0.04379869,4.1046561,641.6013)">
      <path
         d="m 16300,6435.54 c -157.3,4.25 -435,182.1 -664.6,351.15 -171.2,126.17 -269.8,328.48 -263.7,541.07 0.1,3.51 0.2,7.01 0.4,10.52 0,0.07 0,0.07 0,0.07 0,0.38 0,0.75 0,1.12 0.8,27.15 1.7,54.06 2.6,80.84 0.3,7.23 0.6,14.46 0.9,21.62 l 0,0.07 c 0,0 329.7,-61.52 613.6,-113.12 -1,-26.24 -6.3,-45.63 -16.9,-56.3 -19.6,-19.61 -19.4,-27.14 -7.6,-27.14 25.7,0 105.7,35.12 157.7,59.28 50.4,-9.02 96.7,-17.3 136.2,-24.16 0.2,-3.35 0.4,-6.71 0.6,-10.07 0,-0.07 0,-0.22 0,-0.29 0.1,-0.97 0.1,-1.87 0.2,-2.84 16.4,-284.85 29.9,-572.24 40.6,-831.82"
         style="fill:#002e69;fill-opacity:1;fill-rule:nonzero;stroke:none"
         id="path350"
         inkscape:connector-curvature="0" />
    </g>
    <g
       id="g352"
       transform="matrix(0.04332121,0,0,-0.04332121,4.1046561,641.6013)">
      <path
         d="m 16140.6,7325.26 c -12,0 -12.2,7.62 7.7,27.44 10.7,10.79 16.1,30.39 17.1,56.92 46.6,-8.51 92.1,-16.73 134.6,-24.42 -52.5,-24.43 -133.4,-59.94 -159.4,-59.94"
         style="fill:#00275a;fill-opacity:1;fill-rule:nonzero;stroke:none"
         id="path354"
         inkscape:connector-curvature="0" />
    </g>
    <g
       id="g356"
       transform="matrix(0.04177604,0,0,-0.04177604,4.1046561,641.6013)">
      <path
         d="m 15439.6,8765.49 c 0,0 168.4,-379.7 193.3,-556.41 24.9,-176.72 67.2,-485.74 67.2,-485.74 l 557.5,42.45 42.4,999.7 -860.4,0"
         style="fill:#ffffff;fill-opacity:1;fill-rule:nonzero;stroke:none"
         id="path358"
         inkscape:connector-curvature="0" />
    </g>
    <g
       id="g360"
       transform="matrix(0.04166762,0,0,-0.04166762,4.1046561,641.6013)">
      <path
         d="m 15614.1,8441.53 c 0,0 -66.9,-309.46 84.5,-388.23 83.8,-43.62 241.7,-0.34 311.8,-70.42 70.1,-70.08 151.6,-160.25 151.6,-160.25 l 138,206.37 -255.1,261.21 c 0,0 -112.4,185.28 -151.9,145.79 -39.5,-39.48 103.3,-157.93 48.6,-157.93 -54.7,0 -327.5,163.46 -327.5,163.46"
         style="fill:#f1763f;fill-opacity:1;fill-rule:nonzero;stroke:none"
         id="path362"
         inkscape:connector-curvature="0" />
    </g>
    <g
       id="g364"
       transform="matrix(0.04486112,0,0,-0.04486112,4.1046561,641.6013)">
      <path
         d="m 15569.1,8805.88 c 0,0 -90.8,-14.93 -149.3,-310.29 -72.9,-367.65 278.3,-1015.61 195.6,-1211.2 -82.7,-195.64 -615.5,368.62 -615.5,368.62 l -37.5,-104.75 -91.8,-256.35 c 0,0 722.2,-872.65 1075.8,-804.95 353.6,67.71 60,2238.7 -377.3,2318.92"
         style="fill:#003982;fill-opacity:1;fill-rule:nonzero;stroke:none"
         id="path366"
         inkscape:connector-curvature="0" />
    </g>
    <g
       id="g368"
       transform="matrix(0.04172053,0,0,-0.04172053,4.1046561,641.6013)">
      <path
         d="m 15631.4,9946.4 91.6,-741.93 577,332.09 -310.5,542.24 -358.1,-132.4"
         style="fill:#ff916c;fill-opacity:1;fill-rule:nonzero;stroke:none"
         id="path370"
         inkscape:connector-curvature="0" />
    </g>
    <g
       id="g372"
       transform="matrix(0.03266024,0,0,-0.03266024,4.1046561,641.6013)">
      <g
         id="g374"
         clip-path="url(#clipPath378)">
        <g
           id="g380"
           transform="scale(1.22896,1.22896)">
          <path
             d="m 16300,9913.97 -52.4,424.53 52.4,-424.52 c 0,-0.01 0,-0.01 0,-0.01"
             style="fill:url(#linearGradient11896);fill-opacity:1;fill-rule:nonzero;stroke:none"
             id="path390"
             inkscape:connector-curvature="0" />
        </g>
      </g>
    </g>
    <g
       id="g392"
       transform="matrix(0.04110553,0,0,-0.04110553,4.1046561,641.6013)">
      <path
         d="m 15916.5,9680.71 -51.2,414.49 363.4,134.4 71.3,-127.7 c -65.2,-155.45 -163.1,-300.03 -260.5,-366.85 -33.3,-22.9 -76,-40.99 -123,-54.35"
         style="fill:#ff572f;fill-opacity:1;fill-rule:nonzero;stroke:none"
         id="path394"
         inkscape:connector-curvature="0" />
    </g>
    <g
       id="g396"
       transform="matrix(0.04139,0,0,-0.04139,4.1046561,641.6013)">
      <path
         d="m 15788.1,10950.2 c 0,0 -18,7.4 -121.1,-134.1 -73.5,-100.8 -117.9,-221.3 -163.7,-336.4 -68.4,-171.3 -125.3,-357.8 -73.8,-541.33 27.1,-96.44 414.2,-122.69 570,-39.65 155.9,83.04 300.5,349.38 291.3,539.18 -9.2,189.8 -433.2,549.3 -502.7,512.3"
         style="fill:#ff916c;fill-opacity:1;fill-rule:nonzero;stroke:none"
         id="path398"
         inkscape:connector-curvature="0" />
    </g>
    <g
       id="g400"
       transform="matrix(0.04239986,0,0,-0.04239986,4.1046561,641.6013)">
      <path
         d="m 15660.9,9787.94 c 23.3,-49.53 62.3,-63.19 180.5,-65.4 152,-2.82 303,112.43 341.4,322.96 117.2,643.9 -492.9,801.1 -649.8,862.7 -58.8,23.1 -104.8,4 -139.3,-28.9 -55.6,-52.9 -130.6,-78.9 -206.3,-66.7 -33.1,5.4 -120.9,7.5 -144.7,-43 -68.2,-144.6 -70.1,-294.8 187.1,-294.8 582.7,0 386.2,-591.35 431.1,-686.86"
         style="fill:#0b0080;fill-opacity:1;fill-rule:nonzero;stroke:none"
         id="path402"
         inkscape:connector-curvature="0" />
    </g>
    <g
       id="g404"
       transform="matrix(0.04111892,0,0,-0.04111892,4.1046561,641.6013)">
      <path
         d="m 16077.4,10424.8 c 0,0 11.8,168 100.3,139.3 88.5,-28.7 122.3,-208.8 41.3,-246.9 -81,-38 -141.6,107.6 -141.6,107.6"
         style="fill:#ff916c;fill-opacity:1;fill-rule:nonzero;stroke:none"
         id="path406"
         inkscape:connector-curvature="0" />
    </g>
    <path
       d="m 500.90576,155.77203 c -7.96255,0 -14.90613,-4.37972 -18.47262,-10.8138 l -15.90554,0 c -6.01602,0 -10.89219,5.36934 -10.89219,11.99611 0.062,26.91531 -1.95308,14.50767 7.84172,46.42981 l 5.046,-15.23601 65.10819,0 c 6.01928,0 10.89547,-5.37261 10.89547,-11.9961 l 0,-19.1977 c 0,-0.39846 -0.0195,-0.79364 -0.0523,-1.18231 l -43.56878,0"
       style="fill:#ffd7cf;fill-opacity:1;fill-rule:nonzero;stroke:#a04131;stroke-width:3.82933211;stroke-miterlimit:4;stroke-dasharray:none;stroke-opacity:0.1927711"
       id="path412"
       inkscape:connector-curvature="0" />
    <g
       id="g408"
       transform="matrix(0.03775002,0,0,-0.03775002,4.1046561,641.6013)">
      <path
         d="m 16300,13938.8 c 0,240.9 -199.2,436.2 -445.1,436.2 l -2742,0 c -245.9,0 -445.1,-195.3 -445.1,-436.2 l 0,-697.9 c 0,-240.9 199.2,-436.2 445.1,-436.2 l 2660.6,0 271,-972.3 c 0,0 255.5,1347.7 255.5,1408.5 l 0,697.9"
         style="fill:#0086f5;fill-opacity:1;fill-rule:nonzero;stroke:none"
         id="path410"
         inkscape:connector-curvature="0" />
    </g>
    <g
       id="g414"
       transform="matrix(0.03685283,0,0,-0.03685283,4.1046561,641.6013)">
      <path
         d="m 16242.8,14211.8 -2959.6,0 c -31.7,0 -57.3,25.7 -57.3,57.3 0,31.6 25.6,57.3 57.3,57.3 l 2959.6,0 c 31.6,0 57.2,-25.7 57.2,-57.3 0,-31.6 -25.6,-57.3 -57.2,-57.3"
         style="fill:#eeeeee;fill-opacity:1;fill-rule:nonzero;stroke:none"
         id="path416"
         inkscape:connector-curvature="0" />
    </g>
    <g
       id="g418"
       transform="matrix(0.03685283,0,0,-0.03685283,4.1046561,641.6013)">
      <path
         d="m 16242.8,13893.6 -2959.6,0 c -31.7,0 -57.3,25.6 -57.3,57.3 0,31.6 25.6,57.2 57.3,57.2 l 2959.6,0 c 31.6,0 57.2,-25.6 57.2,-57.2 0,-31.7 -25.6,-57.3 -57.2,-57.3"
         style="fill:#eeeeee;fill-opacity:1;fill-rule:nonzero;stroke:none"
         id="path420"
         inkscape:connector-curvature="0" />
    </g>
    <g
       id="g422"
       transform="matrix(0.03685283,0,0,-0.03685283,4.1046561,641.6013)">
      <path
         d="m 16242.8,13538.8 -2959.6,0 c -31.7,0 -57.3,25.6 -57.3,57.2 0,31.7 25.6,57.3 57.3,57.3 l 2959.6,0 c 31.6,0 57.2,-25.6 57.2,-57.3 0,-31.6 -25.6,-57.2 -57.2,-57.2"
         style="fill:#eeeeee;fill-opacity:1;fill-rule:nonzero;stroke:none"
         id="path424"
         inkscape:connector-curvature="0" />
    </g>
    <g
       id="g426"
       transform="matrix(0.04134204,0,0,-0.04134204,17.636156,623.81275)" />
    <g
       id="g430"
       transform="matrix(0.05377346,0,0,-0.05377346,4.1046561,641.6013)">
      <path
         d="m 15468.8,8286.59 c -35.6,-7.46 -356.9,-11.05 -356.9,-244.75 0,-233.69 4.6,-326.58 -55.7,-428.78 -60.5,-102.2 -77.3,-534.42 176,-411.55 67.8,32.88 21,-210.89 21,-210.89 0,0 434.7,-195.09 555.4,-144 120.8,51.09 306.6,-65.03 306.6,-65.03 0,0 184.8,295.71 0,480.49 -184.7,184.78 -162.6,169.82 -162.6,378.84 0,209.04 -37.1,148.64 -125.4,274.07 -88.2,125.42 -140.2,417.4 -358.4,371.6"
         style="fill:#100062;fill-opacity:1;fill-rule:nonzero;stroke:none"
         id="path432"
         inkscape:connector-curvature="0" />
    </g>
    <g
       id="g434"
       transform="matrix(0.05387569,0,0,-0.05387569,4.1046561,641.6013)">
      <path
         d="m 16300,4549.58 -150,1876.61 -118.8,-35.22 232.2,-1841.39 36.6,0"
         style="fill:#451b00;fill-opacity:1;fill-rule:nonzero;stroke:none"
         id="path436"
         inkscape:connector-curvature="0" />
    </g>
    <g
       id="g438"
       transform="matrix(0.0514536,0,0,-0.0514536,4.1046561,641.6013)">
      <path
         d="m 15715.8,3821.96 c 0,0 172.4,-1793.81 85.6,-2016.29 -86.8,-222.47 -228.6,-604.91 -228.6,-604.91 l 159.5,0 325.9,433.02 c 0,0 -7.8,19.93 19.3,106.77 27.1,86.83 222.5,1020.17 151.9,1459.67 -20,124.73 -44.8,725.46 -106.1,827.21 -155,256.82 -407.5,-75.79 -407.5,-205.47"
         style="fill:#ff916c;fill-opacity:1;fill-rule:nonzero;stroke:none"
         id="path440"
         inkscape:connector-curvature="0" />
    </g>
    <g
       id="g442"
       transform="matrix(0.05108225,0,0,-0.05108225,4.1046561,641.6013)">
      <path
         d="m 16187.5,1729.61 c 0,0 40.4,16.56 76.5,-68.15 36,-84.78 -65.7,-504.72 -65.7,-504.72 l -82.8,-2.56 c 0,0 56.3,311.44 37.2,311.44 -19.1,0 -111.2,-317 -157.8,-329.72 -46.7,-12.72 -352.9,-32.87 -400.6,14.83 -47.6,47.7 123.9,145.39 123.9,145.39 0,0 153.9,-20.52 174.1,-0.38 20.1,20.08 295.2,433.87 295.2,433.87"
         style="fill:#00424c;fill-opacity:1;fill-rule:nonzero;stroke:none"
         id="path444"
         inkscape:connector-curvature="0" />
    </g>
    <g
       id="g446"
       transform="matrix(0.0534155,0,0,-0.0534155,4.1046561,641.6013)">
      <path
         d="m 15737.2,3681.59 c 0,0 166.2,-1727.93 82.5,-1942.23 -83.6,-214.31 -220.2,-582.7 -220.2,-582.7 l 153.7,0 313.9,417.12 c 0,0 -7.5,19.2 18.6,102.84 26.2,83.65 214.3,982.7 146.4,1406.06 -19.3,120.15 -43.2,698.82 -102.3,796.83 -149.3,247.39 -392.6,-73.01 -392.6,-197.92"
         style="fill:#ff916c;fill-opacity:1;fill-rule:nonzero;stroke:none"
         id="path448"
         inkscape:connector-curvature="0" />
    </g>
    <g
       id="g450"
       transform="matrix(0.03266024,0,0,-0.03266024,4.1046561,641.6013)">
      <g
         id="g452"
         clip-path="url(#clipPath456)">
        <g
           id="g458"
           transform="scale(1.62752,1.62752)">
          <path
             d="m 16300,3207.82 c -2.6,30.48 -5.3,64.83 -8.3,101.63 l 0,0 c 3,-36.74 5.7,-71.15 8.3,-101.63 l 0,0 m -443.9,12.91 0,0 c -0.9,11.85 -1.9,23.59 -2.8,35.14 l 0,0 c 0.9,-11.55 1.9,-23.29 2.8,-35.14"
             style="fill:url(#linearGradient11898);fill-opacity:1;fill-rule:nonzero;stroke:none"
             id="path468"
             inkscape:connector-curvature="0" />
        </g>
      </g>
    </g>
    <g
       id="g470"
       transform="matrix(0.0531552,0,0,-0.0531552,4.1046561,641.6013)">
      <path
         d="m 16149.9,3196.7 c -114.2,0 -230.7,14.62 -293.8,24.03 -0.9,11.85 -1.9,23.59 -2.8,35.14 142.9,6.94 286.7,24.33 438.4,53.58 3,-36.8 5.7,-71.15 8.3,-101.63 -46,-8.05 -97.8,-11.12 -150.1,-11.12"
         style="fill:#ff572f;fill-opacity:1;fill-rule:nonzero;stroke:none"
         id="path472"
         inkscape:connector-curvature="0" />
    </g>
    <g
       id="g474"
       transform="matrix(0.03266024,0,0,-0.03266024,4.1046561,641.6013)">
      <g
         id="g476"
         clip-path="url(#clipPath480)">
        <g
           id="g482"
           transform="scale(1.56752,1.56752)">
          <path
             d="m 16300,3322.12 c -1.5,17.04 -3,35.35 -4.6,54.68 l 0,0 c 1.6,-19.33 3.1,-37.64 4.6,-54.68 l 0,0 m -462.3,31.39 0,0 c -1.6,18.31 -3,36.36 -4.5,54.04 l 0,0 c 1.5,-17.74 2.9,-35.67 4.5,-54.1"
             style="fill:url(#linearGradient11900);fill-opacity:1;fill-rule:nonzero;stroke:none"
             id="path492"
             inkscape:connector-curvature="0" />
        </g>
      </g>
    </g>
    <g
       id="g494"
       transform="matrix(0.05119558,0,0,-0.05119558,4.1046561,641.6013)">
      <path
         d="m 16140.4,3307.9 c -39.8,0 -82.6,2.61 -127.6,9.18 -71.6,10.4 -129.5,23.42 -175.1,36.43 -1.6,18.37 -3,36.3 -4.5,54.04 160.6,-19.46 312.3,-30.24 462.2,-30.75 1.6,-19.33 3.1,-37.64 4.6,-54.68 -43.6,-7.84 -97.9,-14.22 -159.6,-14.22"
         style="fill:#ff572f;fill-opacity:1;fill-rule:nonzero;stroke:none"
         id="path496"
         inkscape:connector-curvature="0" />
    </g>
    <g
       id="g498"
       transform="matrix(0.05356966,0,0,-0.05356966,4.1046561,641.6013)">
      <path
         d="m 16300,3312.43 c 0,355.08 0,876.41 0,1029.5 0,271 -104.3,983.47 -271.1,1337.88 -166.7,354.4 -854.7,0 -854.7,0 0,0 -157.1,-344.72 -198.8,-845.02 l -40,-1550.95 c 495.8,-77.06 883.6,-83.1 1364.6,28.59"
         style="fill:#003f74;fill-opacity:1;fill-rule:nonzero;stroke:none"
         id="path500"
         inkscape:connector-curvature="0" />
    </g>
    <g
       id="g502"
       transform="matrix(0.05356966,0,0,-0.05356966,4.1046561,641.6013)">
      <path
         d="m 16300,3722.32 c -254.8,88.65 -258.9,236.98 -258.9,236.98 l 12.5,321.73 246.4,-90.97 c 0,-124.37 0,-294.17 0,-467.74"
         style="fill:#003261;fill-opacity:1;fill-rule:nonzero;stroke:none"
         id="path504"
         inkscape:connector-curvature="0" />
    </g>
    <g
       id="g506"
       transform="matrix(0.05326821,0,0,-0.05326821,4.1046561,641.6013)">
      <path
         d="m 15135.3,7217.91 c -16.5,-29.3 -116.5,-276.91 -90.4,-539.87 38.8,-392.91 210,-891.87 172.3,-1048.89 -62.9,-262.05 881.1,-301.42 925.2,29.8 15.7,117.84 -14.9,412.57 12.8,679.28 44.1,423.5 144.8,840.41 126.1,851.85 -413.3,253.48 -1107.2,96.85 -1146,27.83"
         style="fill:#6edbf4;fill-opacity:1;fill-rule:nonzero;stroke:none"
         id="path508"
         inkscape:connector-curvature="0" />
    </g>
    <g
       id="g510"
       transform="matrix(0.05320288,0,0,-0.05320288,4.1046561,641.6013)">
      <path
         d="m 16300,7199.64 c -0.1,0.08 -0.2,0.12 -0.3,0.2 0.1,-0.07 0.2,-0.13 0.3,-0.2 m -1.4,0.82 c 0,0.05 -0.1,0.1 -0.2,0.15 0.1,-0.05 0.2,-0.1 0.2,-0.15 m -1.5,0.92 c 0,0.02 0,0.05 0,0.07 0,-0.02 0,-0.04 0,-0.07 m -1.3,0.78 c 0,0.05 -0.1,0.09 -0.2,0.14 0.1,-0.05 0.2,-0.09 0.2,-0.14 m -2.8,1.71 c -0.1,0.03 -0.1,0.02 -0.1,0.05 0,-0.01 0,-0.03 0.1,-0.05 m -1.3,0.8 c -0.1,0.03 -0.1,0.03 -0.2,0.06 0.1,-0.01 0.1,-0.04 0.2,-0.06 m -2.9,1.66 c 0,0.02 0,0.03 0,0.04 0,-0.01 0,-0.03 0,-0.04 m -73.5,37.85 0,0 0,0 m -3,1.33 0,0.01 0,-0.01 m -1.4,0.66 0,0.01 c 0,-0.01 0,-0.01 0,-0.01 m -3,1.3 c 0,0.01 0,0.03 -0.1,0.05 0.1,-0.02 0.1,-0.04 0.1,-0.05 m -3,1.32 c -0.1,0.01 0,0.01 -0.1,0.02 0,-0.01 0.1,-0.01 0.1,-0.02 m -1.4,0.61 c -0.1,0.03 -0.1,0.04 -0.2,0.08 0.1,-0.03 0.1,-0.06 0.2,-0.08 m -3,1.29 c -0.1,0.04 -0.2,0.08 -0.3,0.11 0.1,-0.04 0.2,-0.07 0.3,-0.11 m -1.4,0.61 c -0.1,0.03 -0.2,0.08 -0.3,0.11 0.1,-0.03 0.2,-0.08 0.3,-0.11 m -1.7,0.71 0,0 0,0 m -1.3,0.57 c -0.2,0.04 -0.3,0.1 -0.4,0.14 0.1,-0.05 0.2,-0.09 0.4,-0.14 m -1.6,0.62 c 0,0.04 -0.1,0.07 -0.2,0.1 0.1,-0.03 0.2,-0.06 0.2,-0.1 m -1.6,0.66 c 0,0.05 -0.1,0.11 -0.3,0.15 0.2,-0.05 0.3,-0.1 0.3,-0.15 m -1.3,0.57 c -0.1,0.06 -0.3,0.13 -0.4,0.18 0.1,-0.06 0.3,-0.12 0.4,-0.18 m -1.5,0.65 c -0.1,0.02 -0.2,0.07 -0.3,0.09 0.1,-0.03 0.1,-0.06 0.3,-0.09 m -1.6,0.62 c -0.2,0.07 -0.4,0.15 -0.5,0.21 0.2,-0.07 0.3,-0.14 0.5,-0.21 m -1.3,0.55 c -0.2,0.08 -0.4,0.15 -0.6,0.23 0.2,-0.08 0.4,-0.15 0.6,-0.23 m -1.8,0.73 c -0.1,0.06 -0.3,0.12 -0.4,0.19 0.1,-0.07 0.3,-0.13 0.4,-0.19 m -1.3,0.53 c -0.2,0.09 -0.4,0.17 -0.7,0.25 0.3,-0.08 0.5,-0.16 0.7,-0.25 m -1.4,0.54 c -0.2,0.09 -0.4,0.16 -0.6,0.25 0.2,-0.08 0.4,-0.16 0.6,-0.25 m -1.7,0.71 c -0.3,0.1 -0.5,0.2 -0.8,0.3 0.3,-0.11 0.5,-0.2 0.8,-0.3 m -1.3,0.52 c -0.3,0.1 -0.6,0.21 -0.8,0.3 0.2,-0.1 0.5,-0.2 0.8,-0.3 m -1.3,0.5 c -0.5,0.2 -1,0.39 -1.5,0.59 0.5,-0.2 1,-0.39 1.5,-0.59 m -1.9,0.75 c -0.3,0.1 -0.6,0.22 -0.9,0.33 0.3,-0.11 0.6,-0.22 0.9,-0.33 m -1.2,0.49 c -1,0.37 -1.9,0.74 -2.9,1.11 1,-0.37 1.9,-0.74 2.9,-1.11 m -3.3,1.25 c -0.3,0.12 -0.6,0.24 -0.9,0.35 0.3,-0.11 0.6,-0.23 0.9,-0.35 m -1.2,0.46 c -0.9,0.38 -2,0.78 -3,1.15 1,-0.38 2.1,-0.77 3,-1.15 m -3.2,1.25 c -0.3,0.12 -0.7,0.26 -1,0.38 0.3,-0.12 0.6,-0.25 1,-0.38 m -1.1,0.41 c -1.1,0.41 -2.2,0.81 -3.2,1.21 1,-0.4 2.1,-0.81 3.2,-1.21 m -3.3,1.27 c -1.1,0.4 -2.2,0.81 -3.3,1.2 1.1,-0.39 2.2,-0.8 3.3,-1.2 m -3.3,1.22 c -81.8,30.27 -169.2,49.43 -257,60.2 l 0,0 c 87.9,-10.77 175.2,-29.93 257,-60.2"
         style="fill:#05005e;fill-opacity:1;fill-rule:nonzero;stroke:none"
         id="path512"
         inkscape:connector-curvature="0" />
    </g>
    <g
       id="g514"
       transform="matrix(0.0532068,0,0,-0.0532068,4.1046561,641.6013)">
      <path
         d="m 16096.6,6632.66 c -137,0 -274.3,72.81 -372.4,170.87 -59.9,59.93 -90.7,127.79 -106.3,186.4 63.7,145.56 113.9,316.41 116.7,325.77 l 167.1,10.83 c 87.8,-10.77 175.2,-29.93 256.9,-60.19 0,-0.01 0,-0.01 0.1,-0.02 1,-0.4 2.1,-0.81 3.2,-1.21 0,-0.02 0.1,-0.04 0.2,-0.06 1,-0.4 2.1,-0.8 3.2,-1.21 0,-0.01 0,-0.01 0.1,-0.03 0.3,-0.11 0.7,-0.25 1,-0.38 0,-0.03 0.2,-0.06 0.2,-0.09 1,-0.38 2,-0.78 3,-1.15 0.1,-0.04 0.2,-0.08 0.3,-0.11 0.3,-0.12 0.6,-0.24 0.9,-0.36 0.1,-0.04 0.2,-0.09 0.4,-0.14 0.9,-0.37 1.9,-0.74 2.8,-1.11 0.2,-0.05 0.3,-0.11 0.4,-0.15 0.3,-0.12 0.6,-0.23 0.9,-0.34 0.1,-0.05 0.3,-0.11 0.4,-0.16 0.5,-0.2 1,-0.38 1.5,-0.58 0.2,-0.07 0.3,-0.13 0.5,-0.2 0.2,-0.1 0.5,-0.2 0.8,-0.31 0.1,-0.07 0.3,-0.14 0.5,-0.22 0.3,-0.1 0.5,-0.2 0.8,-0.29 0.3,-0.16 0.7,-0.31 1.1,-0.46 0.2,-0.1 0.4,-0.17 0.6,-0.26 0.3,-0.09 0.5,-0.19 0.7,-0.28 0.3,-0.09 0.4,-0.16 0.7,-0.26 0.2,-0.11 0.5,-0.23 0.8,-0.34 0.2,-0.07 0.3,-0.12 0.5,-0.19 0.4,-0.17 0.8,-0.33 1.2,-0.5 0.2,-0.08 0.4,-0.15 0.6,-0.22 0.3,-0.12 0.5,-0.23 0.8,-0.34 0.1,-0.07 0.3,-0.15 0.5,-0.22 0.4,-0.17 0.9,-0.35 1.3,-0.53 0.1,-0.01 0.2,-0.06 0.2,-0.09 0.4,-0.15 0.8,-0.31 1.1,-0.46 0.2,-0.06 0.3,-0.13 0.5,-0.18 0.3,-0.14 0.6,-0.28 1,-0.42 0.1,-0.05 0.3,-0.1 0.3,-0.15 0.5,-0.19 0.9,-0.38 1.4,-0.56 0.1,-0.04 0.2,-0.07 0.2,-0.1 0.4,-0.16 0.8,-0.32 1.2,-0.48 0.1,-0.05 0.2,-0.1 0.4,-0.15 0.4,-0.18 0.8,-0.38 1.2,-0.57 l 0.1,0 c 0.4,-0.19 0.9,-0.39 1.4,-0.59 0.1,-0.04 0.1,-0.08 0.3,-0.12 0.3,-0.16 0.7,-0.32 1.1,-0.49 0.1,-0.04 0.2,-0.08 0.3,-0.11 0.9,-0.41 1.9,-0.81 2.8,-1.22 0.1,-0.03 0.1,-0.04 0.2,-0.08 0.4,-0.19 0.9,-0.39 1.3,-0.58 0.1,-0.02 0,-0.02 0.1,-0.03 1,-0.42 2,-0.85 2.9,-1.27 0,-0.01 0.1,-0.04 0.1,-0.05 1,-0.43 2,-0.85 2.9,-1.29 l 0,-0.01 c 0.5,-0.22 1,-0.44 1.5,-0.65 l 0,-0.01 c 1,-0.44 2,-0.88 3,-1.32 l 0,-0.01 c 25.3,-11.37 49.7,-23.94 73.4,-37.8 0,-0.01 0.1,-0.02 0.1,-0.04 0.9,-0.53 1.8,-1.06 2.7,-1.6 0.1,-0.03 0.1,-0.03 0.1,-0.06 0.5,-0.25 0.9,-0.5 1.3,-0.75 0,-0.04 0,-0.02 0.1,-0.05 0.8,-0.52 1.7,-1.05 2.6,-1.57 0.1,-0.05 0.1,-0.09 0.2,-0.14 0.4,-0.24 0.8,-0.47 1.2,-0.71 0,-0.02 0.1,-0.05 0.1,-0.07 0.4,-0.26 0.8,-0.51 1.3,-0.77 0.1,-0.05 0.2,-0.1 0.2,-0.15 0.4,-0.2 0.7,-0.42 1.1,-0.62 0.1,-0.08 0.1,-0.12 0.3,-0.2 0.4,-0.25 0.8,-0.51 1.2,-0.76 l 0,0 0,0 0,0 0,0 0,0 c 0,-0.01 0,-0.02 0,-0.02 l 0,0 c 0,-0.02 0,-0.03 0,-0.06 0,0 0,-0.02 0,-0.03 0,0 0,0 0,-0.01 0,-0.01 0,-0.03 0,-0.04 0,-0.03 0,-0.07 0,-0.11 -0.1,-0.05 -0.1,-0.09 -0.1,-0.14 0,-0.04 0,-0.07 0,-0.1 0,-0.03 0,-0.06 0,-0.1 0,-0.04 0,-0.09 0,-0.14 0,-0.01 0,-0.03 0,-0.05 0,-0.04 -0.1,-0.08 -0.1,-0.12 0,-0.26 -0.1,-0.56 -0.2,-0.93 0,-0.03 0,-0.07 0,-0.11 0,-0.18 0,-0.38 -0.1,-0.59 0,0 0,-0.01 0,-0.02 -0.1,-0.23 -0.1,-0.48 -0.2,-0.74 0,-0.01 0,-0.03 0,-0.04 -5.5,-27.43 -44.4,-219.29 -83.3,-424.84 -7.8,-41.45 -15.7,-83.48 -23.3,-124.8 -31.7,-8.67 -63.9,-12.69 -96.1,-12.69"
         style="fill:#23b7e9;fill-opacity:1;fill-rule:nonzero;stroke:none"
         id="path516"
         inkscape:connector-curvature="0" />
    </g>
    <g
       id="g518"
       transform="matrix(0.04973208,0,0,-0.04973208,4.1046561,641.6013)">
      <path
         d="m 16300,6166.06 0,0 c -6.2,54.84 -17.7,119.26 -32.2,190.13 l 0,0 c 14.5,-70.8 26,-135.29 32.2,-190.13"
         style="fill:#51b6ed;fill-opacity:1;fill-rule:nonzero;stroke:none"
         id="path520"
         inkscape:connector-curvature="0" />
    </g>
    <g
       id="g522"
       transform="matrix(0.03266024,0,0,-0.03266024,4.1046561,641.6013)">
      <g
         id="g524"
         clip-path="url(#clipPath528)">
        <g
           id="g530"
           transform="scale(1.52312,1.52312)">
          <path
             d="m 16300,6109.97 c -0.7,16.87 -2.2,35.06 -4.4,54.43 l 0,0 c 2.2,-19.37 3.7,-37.56 4.4,-54.43 l 0,0"
             style="fill:url(#linearGradient538);fill-opacity:1;fill-rule:nonzero;stroke:none"
             id="path540"
             inkscape:connector-curvature="0" />
        </g>
      </g>
    </g>
    <g
       id="g542"
       transform="matrix(0.05276818,0,0,-0.05276818,4.1046561,641.6013)">
      <path
         d="m 16267.9,5735.4 c -225.1,0 -619.3,22.65 -723.2,34.97 -13.7,1.61 -28.5,2.35 -43.9,2.35 -41.8,0 -89,-5.33 -134.5,-12.75 -0.7,15.9 -2.1,33.05 -4.2,51.31 -5.8,51.68 -16.7,112.46 -30.3,179.18 l 126,83.74 82.4,-12.25 -17.8,-195.34 c 0,0 505.5,-64.06 777.6,-71.05 -0.2,-22.41 -0.9,-42.52 -2.3,-60.04 -9.5,-0.06 -19.4,-0.12 -29.8,-0.12"
         style="fill:#2fb4eb;fill-opacity:1;fill-rule:nonzero;stroke:none"
         id="path544"
         inkscape:connector-curvature="0" />
    </g>
    <g
       id="g546"
       transform="matrix(0.05404095,0,0,-0.05404095,4.1046561,641.6013)">
      <path
         d="m 16048.5,7087.26 c 0,0 88.7,5.17 170.1,-421.07 81.4,-426.24 -54.8,-949.35 -145.5,-995.83 -90.9,-46.53 -916.3,58.08 -916.3,58.08 l 27.2,298.38 c 0,0 636.4,34.14 706.1,103.89 17.1,17.14 -0.9,99.86 13.9,190.35 45.2,277.88 144.5,766.2 144.5,766.2"
         style="fill:#51d5f4;fill-opacity:1;fill-rule:nonzero;stroke:none"
         id="path548"
         inkscape:connector-curvature="0" />
    </g>
    <g
       id="g550"
       transform="matrix(0.05320485,0,0,-0.05320485,4.1046561,641.6013)">
      <path
         d="m 16216.7,6770.43 c 38.9,205.56 77.8,397.42 83.3,424.86 -5.5,-27.42 -44.4,-219.28 -83.3,-424.86"
         style="fill:#0b99df;fill-opacity:1;fill-rule:nonzero;stroke:none"
         id="path552"
         inkscape:connector-curvature="0" />
    </g>
    <g
       id="g554"
       transform="matrix(0.0536647,0,0,-0.0536647,4.1046561,641.6013)">
      <path
         d="m 16300,6860.07 c -2.7,10.69 -5.4,20.99 -8.2,30.87 2.8,-9.88 5.5,-20.17 8.2,-30.86 l 0,0 m -8.3,31.24 c 0,0.11 0,0.24 0,0.35 0,-0.13 0,-0.22 0,-0.35"
         style="fill:#3bb9eb;fill-opacity:1;fill-rule:nonzero;stroke:none"
         id="path556"
         inkscape:connector-curvature="0" />
    </g>
    <g
       id="g558"
       transform="matrix(0.0532068,0,0,-0.0532068,4.1046561,641.6013)">
      <path
         d="m 16299.3,7195.03 c 0.1,0.26 0.1,0.51 0.2,0.74 -0.1,-0.23 -0.1,-0.48 -0.2,-0.74 m 0.2,0.76 c 0.1,0.21 0.1,0.41 0.1,0.59 0,-0.18 0,-0.38 -0.1,-0.59 m 0.1,0.7 c 0.1,0.37 0.2,0.67 0.2,0.93 0,-0.26 -0.1,-0.57 -0.2,-0.93 m 0.3,1.05 c 0,0.02 0,0.04 0,0.05 0,-0.01 0,-0.03 0,-0.05 m 0,0.19 c 0,0.04 0,0.07 0,0.1 0,-0.03 0,-0.06 0,-0.1 m 0,0.2 c 0,0.05 0,0.09 0.1,0.14 -0.1,-0.04 -0.1,-0.09 -0.1,-0.14 m 0.1,0.25 c 0,0.01 0,0.03 0,0.04 0,-0.01 0,-0.03 0,-0.04 m 0,0.05 c 0,0.01 0,0.03 0,0.03 0,0 0,-0.02 0,-0.03 m 0,0.09 0,0 0,0 m 0,0.02 0,0 0,0"
         style="fill:#0b99df;fill-opacity:1;fill-rule:nonzero;stroke:none"
         id="path560"
         inkscape:connector-curvature="0" />
    </g>
    <g
       id="g562"
       transform="matrix(0.0536647,0,0,-0.0536647,4.1046561,641.6013)">
      <path
         d="m 16054.6,6588.69 c 7.5,40.97 15.3,82.63 23.1,123.73 38.6,203.81 77.1,394.03 82.6,421.21 0,0.01 0,0.03 0,0.04 0.1,0.26 0.1,0.5 0.2,0.74 0,0 0,0.01 0,0.02 0.1,0.21 0.1,0.4 0.1,0.58 0,0.04 0,0.08 0,0.11 0.1,0.36 0.2,0.67 0.2,0.92 0,0.04 0.1,0.08 0.1,0.12 0,0.02 0,0.04 0,0.05 0,0.05 0,0.1 0,0.14 0,0.03 0,0.07 0,0.1 0,0.03 0,0.06 0,0.09 0,0.06 0,0.11 0.1,0.15 0,0.03 0,0.08 0,0.11 0,0.01 0,0.02 0,0.03 0,0.01 0,0.01 0,0.02 0,0.01 0,0.02 0,0.03 0,0.02 0,0.04 0,0.05 l 0,0 c 0,0.01 0,0.01 0,0.02 l 0,0.01 0,0 c 0,0 0.1,0 0.2,0 l 0,0 c 0,0 0,0 0.1,0 l 0,0 0,0 c 4.7,-0.13 64.8,-6.45 130.4,-245.29 0,-0.11 0,-0.24 0,-0.35 0.1,-0.12 0.1,-0.25 0.1,-0.38 2.8,-9.88 5.5,-20.18 8.2,-30.87 -24.5,-86.59 -70.8,-182.04 -158.1,-234.08 -28.3,-16.91 -57.6,-29.17 -87.3,-37.3"
         style="fill:#1ab2e9;fill-opacity:1;fill-rule:nonzero;stroke:none"
         id="path564"
         inkscape:connector-curvature="0" />
    </g>
    <g
       id="g566"
       transform="matrix(0.05398934,0,0,-0.05398934,4.1046561,641.6013)">
      <path
         d="m 15939.4,6177.52 c 0,0 91.7,50.28 127.9,86.48 36.2,36.19 106,82.74 106,54.3 0,-28.44 -33.6,-66 -33.6,-66 0,0 125.4,69.88 139.6,55.66 14.2,-14.23 20.7,-103.44 0,-199.11 -20.7,-95.64 -302.3,-138.17 -302.3,-138.17 l -37.6,206.84"
         style="fill:#ff916c;fill-opacity:1;fill-rule:nonzero;stroke:none"
         id="path568"
         inkscape:connector-curvature="0" />
    </g>
    <g
       id="g570"
       transform="matrix(0.05304416,0,0,-0.05304416,4.1046561,641.6013)">
      <path
         d="m 16191.6,1665.64 c 0,0 39,15.95 73.7,-65.64 34.7,-81.64 -63.3,-486.04 -63.3,-486.04 l -79.7,-2.47 c 0,0 54.2,299.92 35.8,299.92 -18.3,0 -107.1,-305.27 -152,-317.53 -44.9,-12.25 -339.7,-31.65 -385.7,14.29 -45.9,45.93 119.4,140.01 119.4,140.01 0,0 148.2,-19.76 167.5,-0.37 19.4,19.34 284.3,417.83 284.3,417.83"
         style="fill:#00424c;fill-opacity:1;fill-rule:nonzero;stroke:none"
         id="path572"
         inkscape:connector-curvature="0" />
    </g>
    <g
       id="g574"
       transform="matrix(0.0531441,0,0,-0.0531441,4.1046561,641.6013)">
      <path
         d="m 16300,7234.12 c -211.6,-673.79 -147,-1357.96 -64.7,-2736.41 l -39.7,-3.32 c -145.9,1399.1 -238.9,2084.36 -51.9,2785.75 l 156.3,-46.02"
         style="fill:#7f3100;fill-opacity:1;fill-rule:nonzero;stroke:none"
         id="path576"
         inkscape:connector-curvature="0" />
    </g>
    <g
       id="g578"
       transform="matrix(0.05298732,0,0,-0.05298732,4.1046561,641.6013)">
      <path
         d="m 15067,5834.45 c 299.1,-81.73 964.3,79.02 1233,134.37 l -63.2,347.78 c 0,0 -788.6,-134.15 -884.5,-78.82 -47.4,27.34 -150.6,276.5 -172.9,521.49 -22.7,250.62 36.1,496.88 36.1,496.88 0,0 -269,-242.04 -269,-858.54 0,-470.45 -11.1,-527.16 120.5,-563.16"
         style="fill:#00b0ef;fill-opacity:1;fill-rule:nonzero;stroke:none"
         id="path580"
         inkscape:connector-curvature="0" />
    </g>
    <g
       id="g582"
       transform="matrix(0.05025104,0,0,-0.05025104,4.1046561,641.6013)">
      <path
         d="m 16043,6874.97 c 0,0 69.2,-71.8 123.4,-125.97 54.2,-54.17 133.6,-193.01 133.6,-193.01 0,0 -112.6,-14.9 -151.4,-14.9 -38.9,0 -158.4,83.34 -202.8,83.34 -44.5,0 -25,63.89 27.7,47.22 52.8,-16.66 105.6,-27.78 105.6,-27.78 0,0 -118,95.85 -172.2,150.02 -54.2,54.18 -2.7,85.74 41.6,41.42 44.3,-44.32 94.5,-71.98 94.5,-71.98 0,0 -155.6,161.13 -127.8,188.91 27.8,27.78 127.8,-77.27 127.8,-77.27"
         style="fill:#ff916c;fill-opacity:1;fill-rule:nonzero;stroke:none"
         id="path584"
         inkscape:connector-curvature="0" />
    </g>
    <g
       id="g586"
       transform="matrix(0.05136183,0,0,-0.05136183,4.1046561,641.6013)">
      <path
         d="m 16074.4,8041.92 -37.3,-442.74 c 0,0 -149.1,-525.55 -29.4,-569.31 119.8,-43.78 292.3,549.06 292.3,549.06 l 0,566.7 -225.6,-103.71"
         style="fill:#f25c12;fill-opacity:1;fill-rule:nonzero;stroke:none"
         id="path588"
         inkscape:connector-curvature="0" />
    </g>
    <g
       id="g590"
       transform="matrix(0.05136183,0,0,-0.05136183,4.1046561,641.6013)">
      <path
         d="m 16051.4,7768.35 23,273.57 225.6,103.71 0,-194.59 c -72.1,-102.79 -166.8,-176.85 -248.6,-182.69"
         style="fill:#f23708;fill-opacity:1;fill-rule:nonzero;stroke:none"
         id="path592"
         inkscape:connector-curvature="0" />
    </g>
    <g
       id="g594"
       transform="matrix(0.05184618,0,0,-0.05184618,4.1046561,641.6013)">
      <path
         d="m 15924.2,8474.2 c 0,0 -130.1,57.81 -173.4,-202.35 -43.4,-260.15 -10.4,-444.31 118.1,-463.57 128.4,-19.28 305.8,135.97 368.4,309.4 62.7,173.45 -210.3,383.96 -313.1,356.52"
         style="fill:#ff916c;fill-opacity:1;fill-rule:nonzero;stroke:none"
         id="path596"
         inkscape:connector-curvature="0" />
    </g>
    <g
       id="g598"
       transform="matrix(0.05373525,0,0,-0.05373525,4.1046561,641.6013)">
      <path
         d="m 16206.8,7153.85 c -20.8,41.5 -47,80.35 -80,113.43 -184.9,184.91 -162.7,169.94 -162.7,379.12 0,209.18 -37.2,148.75 -125.5,274.26 -88.4,125.5 -140.3,418.79 -358.8,373.04 -2.8,-0.6 -250.3,-43.98 -204.2,-134.19 0,0 45.1,32.73 128.7,-74.19 83.7,-106.91 36.8,-113.53 120.5,-150.72 83.6,-37.18 51.3,-181.29 51.3,-276.58 0,-95.3 -28.1,-382.37 -104.8,-506.67 -76.7,-124.3 68.8,-363.33 241.2,-435.21 504.3,-210.29 587.5,250.92 494.3,437.71"
         style="fill:#003c8e;fill-opacity:1;fill-rule:nonzero;stroke:none"
         id="path600"
         inkscape:connector-curvature="0" />
    </g>
    <g
       id="g602"
       transform="matrix(0.05336749,0,0,-0.05336749,4.1046561,641.6013)">
      <path
         d="m 16204.7,4021.61 -9.7,0 c -51.1,0 -92.2,42.04 -91.2,93.14 l 9.9,495.52 141.8,0 40.2,-489.89 c 4.3,-53.18 -37.7,-98.77 -91,-98.77"
         style="fill:#7f3100;fill-opacity:1;fill-rule:nonzero;stroke:none"
         id="path604"
         inkscape:connector-curvature="0" />
    </g>
    <g
       id="g606"
       transform="matrix(0.05442209,0,0,-0.05442209,4.1046561,641.6013)">
      <path
         d="m 16053,3907.31 -24.8,0 c -142.3,-5.22 -238.2,60.43 -235.6,113.72 l 24.9,499.91 275.5,0 c 53.5,0 99.5,-37.69 110.2,-90.08 l 85.5,-420.63 c 11.3,-55.45 -97.4,-102.92 -235.7,-102.92"
         style="fill:#995327;fill-opacity:1;fill-rule:nonzero;stroke:none"
         id="path608"
         inkscape:connector-curvature="0" />
    </g>
    <g
       id="g610"
       transform="matrix(0.05338741,0,0,-0.05338741,4.1046561,641.6013)">
      <path
         d="m 16097.8,4113.22 9.9,495.34 44.6,0 c 54.9,0 100.7,-42.21 105.1,-96.96 l 32.2,-392.75 c 10.4,-127.74 -194.4,-133.73 -191.8,-5.63"
         style="fill:#7f3100;fill-opacity:1;fill-rule:nonzero;stroke:none"
         id="path612"
         inkscape:connector-curvature="0" />
    </g>
    <g
       id="g614"
       transform="matrix(0.05805978,0,0,-0.05805978,4.1046561,641.6013)">
      <path
         d="m 13938.3,9172.45 c 0,156.63 129.6,283.6 289.5,283.6 l 1782.8,0 c 159.8,0 289.4,-126.97 289.4,-283.6 l 0,-453.75 c 0,-156.63 -129.6,-283.6 -289.4,-283.6 l -1729.9,0 -176.2,-632.19 c 0,0 -166.2,876.26 -166.2,915.79 l 0,453.75"
         style="fill:#0086f5;fill-opacity:1;fill-rule:nonzero;stroke:none"
         id="path616"
         inkscape:connector-curvature="0" />
    </g>
    <g
       id="g618"
       transform="matrix(0.05749509,0,0,-0.05749509,4.1046561,641.6013)">
      <path
         d="m 14366.2,9220.05 1897,0 c 20.3,0 36.8,16.44 36.8,36.72 0,20.28 -16.5,36.72 -36.8,36.72 l -1897,0 c -20.2,0 -36.7,-16.44 -36.7,-36.72 0,-20.28 16.5,-36.72 36.7,-36.72"
         style="fill:#eeeeee;fill-opacity:1;fill-rule:nonzero;stroke:none"
         id="path620"
         inkscape:connector-curvature="0" />
    </g>
    <g
       id="g622"
       transform="matrix(0.05749509,0,0,-0.05749509,4.1046561,641.6013)">
      <path
         d="m 14366.2,9016.07 1897,0 c 20.3,0 36.8,16.44 36.8,36.72 0,20.28 -16.5,36.71 -36.8,36.71 l -1897,0 c -20.2,0 -36.7,-16.43 -36.7,-36.71 0,-20.28 16.5,-36.72 36.7,-36.72"
         style="fill:#eeeeee;fill-opacity:1;fill-rule:nonzero;stroke:none"
         id="path624"
         inkscape:connector-curvature="0" />
    </g>
    <g
       id="g626"
       transform="matrix(0.05749509,0,0,-0.05749509,4.1046561,641.6013)">
      <path
         d="m 14366.2,8788.64 1897,0 c 20.3,0 36.8,16.43 36.8,36.71 0,20.29 -16.5,36.72 -36.8,36.72 l -1897,0 c -20.2,0 -36.7,-16.43 -36.7,-36.72 0,-20.28 16.5,-36.71 36.7,-36.71"
         style="fill:#eeeeee;fill-opacity:1;fill-rule:nonzero;stroke:none"
         id="path628"
         inkscape:connector-curvature="0" />
    </g>
    <path
       d="m 149.1942,571.67899 -77.233314,0 c 3.703018,-3.92251 20.756565,-6.88804 41.235194,-6.88804 15.28074,0 28.65512,1.64933 35.99812,4.11845 l 0,2.76959"
       style="fill:#1a1a1a;fill-opacity:1;fill-rule:nonzero;stroke:none"
       id="path630"
       inkscape:connector-curvature="0" />
    <path
       d="m 152.47133,571.67899 -5.23674,0 0,-2.76959 c 2.49785,0.83937 4.29677,1.77345 5.23674,2.76959"
       style="fill:#022767;fill-opacity:1;fill-rule:nonzero;stroke:none"
       id="path632"
       inkscape:connector-curvature="0" />
    <path
       d="m 153.22709,573.26628 -52.07578,0 -9.943743,-63.9749 71.963253,0 -9.94373,63.9749"
       style="fill:#9d4a00;fill-opacity:1;fill-rule:nonzero;stroke:none"
       id="path636"
       inkscape:connector-curvature="0" />
    <path
       inkscape:connector-curvature="0"
       id="path11957"
       style="fill:#bb5900;fill-opacity:1;fill-rule:nonzero;stroke:none"
       d="m 154.99585,573.26628 -42.81268,0 -8.17497,-63.9749 59.16262,0 -8.17497,63.9749" />
    <path
       d="m 113.19608,581.77427 c -23.185837,0 -41.981481,-3.80165 -41.981481,-8.49168 0,-0.54869 0.256709,-1.0843 0.746287,-1.6036 l 77.233314,0 5.23674,0 c 0.48957,0.5193 0.74628,1.05491 0.74628,1.6036 0,4.69003 -18.79564,8.49168 -41.98114,8.49168"
       style="fill:#333333;fill-opacity:1;fill-rule:nonzero;stroke:none"
       id="path634"
       inkscape:connector-curvature="0" />
    <path
       d="m 163.17082,509.29138 c 0,1.87471 -16.05512,3.39341 -35.8603,3.39341 -19.80484,0 -35.859961,-1.5187 -35.859961,-3.39341 0,-1.87469 16.055121,-3.3934 35.859961,-3.3934 19.80518,0 35.8603,1.51871 35.8603,3.3934"
       style="fill:#723600;fill-opacity:1;fill-rule:nonzero;stroke:none"
       id="path638"
       inkscape:connector-curvature="0" />
    <path
       d="m 178.91437,366.71962 c -0.17833,0.19923 -7.13301,7.25711 -15.54171,17.70186 -13.4276,16.66979 -31.22547,41.49158 -35.52129,57.60615 -0.37003,1.39132 -0.64013,2.71406 -0.79919,3.96167 -0.12405,0.97655 -0.24592,1.98247 -0.36808,3.01455 -2.53868,21.4741 -4.57439,53.81428 -5.16227,63.63847 -0.66856,-0.0103 -1.33026,-0.0228 -1.98575,-0.0359 0.60944,-10.20634 2.82609,-45.42714 5.54767,-66.88166 0.15481,-1.20842 0.40727,-2.48216 0.74923,-3.80491 0.37004,-1.43052 0.8446,-2.92311 1.41092,-4.46793 9.94831,-27.10473 48.40249,-70.09541 50.20958,-72.11056 l 1.46089,1.37826"
       style="fill:#03a300;fill-opacity:1;fill-rule:nonzero;stroke:none"
       id="path640"
       inkscape:connector-curvature="0" />
    <path
       d="m 129.67808,512.67825 c -0.66399,0.007 -1.33255,0.007 -2.00534,0.007 0.57284,-4.01395 3.22029,-25.97469 -0.98864,-63.68094 -0.25671,-2.30254 -0.53988,-4.66388 -0.85112,-7.084 -0.23287,-1.82572 -0.48338,-3.68736 -0.74923,-5.57839 -7.04775,-50.091 2.38225,-145.89984 2.47793,-146.86331 l 1.97497,0.2025 c -0.0957,0.9602 -9.50184,96.53061 -2.48642,146.37667 0.0653,0.46705 0.13066,0.9341 0.19367,1.3946 0.21328,1.5481 0.41577,3.07331 0.60747,4.5757 5.23414,41.12249 2.5302,65.51644 1.82671,70.65063"
       style="fill:#013700;fill-opacity:1;fill-rule:nonzero;stroke:none"
       id="path642"
       inkscape:connector-curvature="0" />
    <path
       d="m 135.53518,512.66514 -1.88367,-0.47241 c 9.02323,-38.46348 9.72638,-126.2179 9.73212,-127.10172 l 1.93851,0.016 c -0.006,0.8838 -0.7108,88.86963 -9.78696,127.55806"
       style="fill:#03a300;fill-opacity:1;fill-rule:nonzero;stroke:none"
       id="path644"
       inkscape:connector-curvature="0" />
    <path
       d="m 126.96655,512.55353 -1.97881,0 c 0,-24.18195 -25.96286,-101.64618 -26.232391,-102.40557 l 1.194321,1.33933 c 1.10252,3.11447 27.01688,76.55106 27.01688,101.06624"
       style="fill:#027b00;fill-opacity:1;fill-rule:nonzero;stroke:none"
       id="path646"
       inkscape:connector-curvature="0" />
    <path
       d="m 100.519,414.1227 c -0.005,0.0229 4.05902,-13.68138 3.85228,-21.30754 -0.1264,-4.55284 -0.24169,-11.209 -1.50564,-15.83368 -0.56306,-2.0674 -2.75456,-2.06413 -3.525017,-0.0229 0.01992,-0.0914 -4.944108,-18.73393 -7.556603,-20.01421 -0.832508,-0.43764 -3.284966,2.05107 -3.71053,1.08106 -4.291555,-9.70009 -18.839082,-24.2143 -18.818507,-24.32862 0.09701,8.56679 0.213927,17.01272 0.345547,25.38681 10.465322,17.39158 21.147834,34.28673 30.91847,55.03905"
       style="fill:#013700;fill-opacity:1;fill-rule:nonzero;stroke:none"
       id="path648"
       inkscape:connector-curvature="0" />
    <path
       d="m 100.49941,414.21088 c 0.0686,-0.28413 -2.706884,-36.11243 -7.44752,-44.58449 -1.48016,-2.79245 -2.895657,-4.97417 -4.68119,-6.23484 -1.399166,-0.9896 -3.114809,-0.46378 -3.13669,1.65913 -0.0018,0.14375 -0.0029,0.28742 -0.0043,0.43112 -0.02352,2.33848 -2.527903,3.35421 -3.305217,1.3554 -4.248445,-10.95425 -8.505382,-21.79745 -12.669562,-33.14035 -0.03332,0.22209 -4.095267,36.55988 11.006504,52.15841 15.002807,16.22561 20.210807,28.51239 20.237917,28.35562"
       style="fill:#83bb00;fill-opacity:1;fill-rule:nonzero;stroke:none"
       id="path650"
       inkscape:connector-curvature="0" />
    <path
       d="m 125.16148,354.24668 c 0,0 9.92448,-9.69356 12.45041,-16.22888 1.51185,-3.9127 3.83529,-9.6315 4.17824,-14.33131 0.15284,-2.09679 -2.26206,-3.36727 -3.89376,-2.04126 0,0 1.84889,-19.24343 -0.39683,-22.03914 -0.7195,-0.89815 -4.33206,-0.2123 -4.40162,-1.33253 -0.70088,-11.2678 -10.48622,-33.14363 -10.48622,-33.14363 l -9.40778,22.30695 11.95756,66.8098"
       style="fill:#013700;fill-opacity:1;fill-rule:nonzero;stroke:none"
       id="path652"
       inkscape:connector-curvature="0" />
    <path
       d="m 125.16148,354.24668 c 0,0 10.32489,-32.19973 8.71735,-42.7196 -0.50983,-3.33788 -1.17021,-6.12379 -2.58375,-8.33817 -1.10718,-1.73099 -3.1429,-2.33846 -4.00938,-0.47357 l -0.17571,0.37886 c -0.95204,2.05107 -4.02309,1.39133 -4.05019,-0.86876 l -0.4481,-37.09551 c 0,0 -18.33873,29.15907 -8.87379,52.87694 9.46461,23.72114 11.42357,36.23981 11.42357,36.23981"
       style="fill:#03d100;fill-opacity:1;fill-rule:nonzero;stroke:none"
       id="path654"
       inkscape:connector-curvature="0" />
    <path
       d="m 164.13104,380.99542 c 0.1339,0.0588 -2.0896,-9.02076 2.07621,-14.7657 4.77852,-6.59083 11.62116,-9.83727 19.16797,-7.55105 2.65429,0.80344 4.06685,4.35688 3.22292,5.88864 2.35316,0.27109 9.98161,0.11097 20.67,4.26544 1.53895,0.58788 3.17066,2.25682 3.76474,3.8539 l 0.0248,0.0654 c 2.13011,5.59143 9.11385,4.98722 17.38113,18.61307 10.11685,10.82033 10.06491,48.20652 7.71893,48.58538 -3.39144,-9.66417 -8.58115,-17.52875 -14.61644,-23.48925 -10.31705,-32.6635 -39.65966,-44.51265 -59.41029,-35.46576"
       style="fill:#013700;fill-opacity:1;fill-rule:nonzero;stroke:none"
       id="path656"
       inkscape:connector-curvature="0" />
    <path
       d="m 163.37135,383.96751 c 0.40172,-0.82958 0,-7.93971 12.10488,-11.14695 9.1638,-2.42665 22.00189,-3.64816 28.70606,0.35599 4.27752,2.16211 7.52166,4.47119 9.9519,6.44061 2.45246,1.99227 2.79702,5.64368 0.73225,5.17664 -0.13816,-0.0294 -0.27631,-0.0556 -0.41479,-0.0816 -2.21633,-0.37887 -1.54189,3.57956 0.68684,5.41833 12.46251,10.18672 22.61037,27.36928 23.01928,49.81994 0.0118,-0.42131 -15.76673,-28.09761 -38.21706,-44.94377 -24.27604,-17.83902 -36.35641,-11.1306 -36.56936,-11.03915"
       style="fill:#03d100;fill-opacity:1;fill-rule:nonzero;stroke:none"
       id="path658"
       inkscape:connector-curvature="0" />
    <path
       d="m 150.88567,345.71582 -1.31032,-4.05966 c 0,0 -15.79057,25.82445 -14.23596,36.51415 1.55463,10.68642 9.32777,15.35031 9.32777,15.35031 l 6.21851,-47.8048"
       style="fill:#013700;fill-opacity:1;fill-rule:nonzero;stroke:none"
       id="path660"
       inkscape:connector-curvature="0" />
    <path
       d="m 151.85731,337.16537 c 0,0 1.3603,0.97001 1.3603,5.05254 0,4.07927 -8.7415,52.58299 -8.7415,52.58299 0,0 -6.61045,-11.77401 -5.6388,-20.71313 0.97164,-8.9391 11.36804,-35.26979 13.02,-36.9224"
       style="fill:#03d100;fill-opacity:1;fill-rule:nonzero;stroke:none"
       id="path662"
       inkscape:connector-curvature="0" />
    <path
       d="m 142.12619,512.64765 -1.52719,-0.29954 c 8.10236,-43.06971 -8.57266,-65.5255 -9.59362,-66.84475 l -8.84733,-7.10922 0.96282,-1.24595 8.34502,6.79694 c 0.18519,0.22945 19.12258,23.71766 10.6603,68.70252"
       style="fill:#027b00;fill-opacity:1;fill-rule:nonzero;stroke:none"
       id="path664"
       inkscape:connector-curvature="0" />
    <path
       d="m 131.43192,444.08848 c -0.11391,0.0103 0.59376,-10.52639 -2.19869,-15.72917 -1.71858,-3.09293 -4.38594,-7.65557 -8.25454,-10.14755 -1.72642,-1.13004 -4.92811,0.0653 -5.00813,1.83878 0.45529,-0.40826 -16.877829,-8.76602 -22.0793,-6.61044 -1.541891,0.49644 -3.41169,4.05967 -4.625017,3.97802 -12.848868,-2.90677 -43.392073,14.97801 -42.818233,16.42483 7.239142,1.02229 14.234639,2.63568 20.918885,4.788 24.696697,-8.69415 48.449515,-5.08194 64.065025,5.45753"
       style="fill:#013700;fill-opacity:1;fill-rule:nonzero;stroke:none"
       id="path666"
       inkscape:connector-curvature="0" />
    <path
       d="m 131.55603,444.67636 c 0.046,-0.54543 -7.29793,-24.33188 -27.95814,-25.19739 -3.68245,-0.15348 -6.979827,-0.614 -10.238666,0.30375 -2.567095,0.72179 -4.50254,2.63896 -3.105009,3.71347 0.0934,0.0719 0.186488,0.14698 0.279899,0.2221 1.476241,1.20516 -0.979156,3.98127 -3.270597,3.80165 -12.702876,-1.03205 -26.721632,0.78058 -40.815507,6.21852 0.124755,0.85569 25.977959,12.56113 50.8471,8.77253 25.96685,-2.33194 32.06158,2.5573 34.26092,2.16537"
       style="fill:#83bb00;fill-opacity:1;fill-rule:nonzero;stroke:none"
       id="path668"
       inkscape:connector-curvature="0" />
    <path
       d="m 117.0673,512.50363 0.94486,-0.18322 c -5.01237,-25.96495 5.30304,-39.50175 5.93469,-40.29674 l 5.47254,-4.28559 -0.59507,-0.75151 -5.5875,4.38805 c -0.11465,0.13669 -11.40431,14.00884 -6.16952,41.12901"
       style="fill:#027b00;fill-opacity:1;fill-rule:nonzero;stroke:none"
       id="path670"
       inkscape:connector-curvature="0" />
    <path
       d="m 123.23682,471.60148 c 0.0706,0.007 0.0787,-6.83253 1.80611,-10.05283 1.06309,-1.91063 2.71341,-4.73574 5.10643,-6.27402 1.06799,-0.70221 3.0485,0.0392 3.09781,1.13656 -0.28152,-0.25148 10.44084,-5.42487 13.65853,-4.09232 0.95368,0.31027 2.1105,2.51484 2.8607,2.46257 7.94853,-1.79631 26.84281,9.26572 26.48779,10.16059 -4.47837,0.63363 -8.80586,1.62977 -12.94032,2.9623 -15.27781,-5.37588 -30.41746,-2.82183 -40.07705,3.69715"
       style="fill:#013700;fill-opacity:1;fill-rule:nonzero;stroke:none"
       id="path672"
       inkscape:connector-curvature="0" />
    <path
       d="m 123.23682,471.74518 c -0.67868,-0.16985 9.59754,-14.97799 17.66429,-15.62467 2.25356,-0.34293 4.31768,-0.37886 6.33348,0.18617 1.58826,0.44746 2.78559,1.63301 1.92074,2.29929 -0.0578,0.0425 -0.11523,0.0882 -0.17277,0.1339 -0.9135,0.74794 0.60552,2.46586 2.02297,2.35482 7.85807,-0.64016 16.53001,0.48337 25.24866,3.84736 -0.0775,0.5291 -16.36115,5.26156 -31.7451,2.91657 -16.06329,-1.44031 -21.19128,4.44507 -21.27227,3.88657"
       style="fill:#039d00;fill-opacity:1;fill-rule:nonzero;stroke:none"
       id="path674"
       inkscape:connector-curvature="0" />
    <path
       d="m 400.84498,241.5623 c 0,0 -4.32749,-5.04927 -6.00948,-1.52196 -1.68528,3.5273 -0.91122,10.25532 3.43258,7.29304 4.34054,-2.96557 2.5769,-5.77108 2.5769,-5.77108"
       style="fill:#f1956c;fill-opacity:1;fill-rule:nonzero;stroke:none"
       id="path676"
       inkscape:connector-curvature="0" />
    <g
       id="g688"
       transform="matrix(0.02540302,0,0,-0.02540302,17.636156,623.81275)" />
    <g
       id="g702"
       transform="matrix(0.02530503,0,0,-0.02530503,17.636156,623.81275)" />
    <g
       id="g708"
       transform="matrix(0.02235517,0,0,-0.02235517,17.636156,623.81275)" />
    <g
       id="g714"
       transform="matrix(0.02335401,0,0,-0.02335401,17.636156,623.81275)" />
    <g
       id="g718"
       transform="matrix(0.02256449,0,0,-0.02256449,17.636156,623.81275)" />
    <g
       id="g722"
       transform="matrix(0.02540013,0,0,-0.02540013,17.636156,623.81275)" />
  </g>
</svg>
